<?xml version="1.0" encoding="UTF-8" standalone="no"?>
<svg
   xmlns:dc="http://purl.org/dc/elements/1.1/"
   xmlns:cc="http://creativecommons.org/ns#"
   xmlns:rdf="http://www.w3.org/1999/02/22-rdf-syntax-ns#"
   xmlns:svg="http://www.w3.org/2000/svg"
   xmlns="http://www.w3.org/2000/svg"
   xmlns:sodipodi="http://sodipodi.sourceforge.net/DTD/sodipodi-0.dtd"
   xmlns:inkscape="http://www.inkscape.org/namespaces/inkscape"
   width="512"
   height="128"
   viewBox="0 0 135.46666 33.866666"
   version="1.1"
   id="svg1013"
   inkscape:version="1.0.2-2 (e86c870879, 2021-01-15)"
   sodipodi:docname="Headshots.svg"
   inkscape:export-filename="C:\Users\Silvio Mayolo\Documents\LennyAndBones\Headshots.png"
   inkscape:export-xdpi="96.000008"
   inkscape:export-ydpi="96.000008">
  <defs
     id="defs1007" />
  <sodipodi:namedview
     id="base"
     pagecolor="#ffffff"
     bordercolor="#666666"
     borderopacity="1.0"
     inkscape:pageopacity="0.0"
     inkscape:pageshadow="2"
     inkscape:zoom="1.4"
     inkscape:cx="326.33209"
     inkscape:cy="80.06877"
     inkscape:document-units="mm"
     inkscape:current-layer="layer1"
     inkscape:document-rotation="0"
     showgrid="true"
     units="px"
     inkscape:snap-grids="false"
     inkscape:window-width="1920"
     inkscape:window-height="1017"
     inkscape:window-x="-8"
     inkscape:window-y="-8"
     inkscape:window-maximized="1">
    <inkscape:grid
       type="xygrid"
       id="grid1576"
       empspacing="64" />
  </sodipodi:namedview>
  <metadata
     id="metadata1010">
    <rdf:RDF>
      <cc:Work
         rdf:about="">
        <dc:format>image/svg+xml</dc:format>
        <dc:type
           rdf:resource="http://purl.org/dc/dcmitype/StillImage" />
        <dc:title></dc:title>
      </cc:Work>
    </rdf:RDF>
  </metadata>
  <g
     inkscape:label="Layer 1"
     inkscape:groupmode="layer"
     id="layer1">
    <rect
       ry="0.5953868"
       y="14.490324"
       x="7.2406173"
       height="4.3362484"
       width="3.1405106"
       id="rect3043"
       style="font-variation-settings:normal;vector-effect:none;fill:#c6a03d;fill-opacity:1;stroke:none;stroke-width:0.563987;stroke-linecap:round;stroke-linejoin:round;stroke-miterlimit:4;stroke-dasharray:none;stroke-dashoffset:0;stroke-opacity:1;stop-color:#000000" />
    <ellipse
       ry="3.6588209"
       rx="5.4766321"
       cy="8.8442411"
       cx="8.9686327"
       id="path3990"
       style="font-variation-settings:normal;vector-effect:none;fill:#25241f;fill-opacity:1;stroke:none;stroke-width:0.234206px;stroke-linecap:butt;stroke-linejoin:miter;stroke-miterlimit:4;stroke-dasharray:none;stroke-dashoffset:0;stroke-opacity:1;stop-color:#000000" />
    <path
       d="m 8.6186657,4.0856975 a 5.1206893,5.7985586 0 0 0 -5.0144355,4.6235522 0.93618637,1.5417377 0 0 0 -0.525754,1.3852373 0.93618637,1.5417377 0 0 0 0.6366199,1.46067 5.1206893,5.7985586 0 0 0 4.9035696,4.127519 5.1206893,5.7985586 0 0 0 4.9633903,-4.372869 0.93618637,1.5417378 0 0 0 0.575658,0.326499 0.93618637,1.5417378 0 0 0 0.93644,-1.541819 0.93618637,1.5417378 0 0 0 -0.93644,-1.5418186 0.93618637,1.5417378 0 0 0 -0.508606,0.2476354 5.1206893,5.7985586 0 0 0 -5.0304423,-4.7146063 z"
       style="fill:#c6a03d;fill-opacity:1;stroke:none;stroke-width:0.563987;stroke-linecap:round;stroke-linejoin:round;stroke-opacity:1;stop-color:#000000"
       id="path3065" />
    <path
       d="m 7.1905252,17.252432 a 1.7001512,1.3059395 0 0 0 -0.017473,0.186679 1.7001512,1.3059395 0 0 0 1.7001295,1.305994 1.7001512,1.3059395 0 0 0 1.7001383,-1.305994 1.7001512,1.3059395 0 0 0 -0.01747,-0.186679 z"
       style="font-variation-settings:normal;vector-effect:none;fill:#c6a03d;fill-opacity:1;stroke:none;stroke-width:0.441232;stroke-linecap:round;stroke-linejoin:round;stroke-miterlimit:4;stroke-dasharray:none;stroke-dashoffset:0;stroke-opacity:1;stop-color:#000000"
       id="path3889" />
    <path
       transform="matrix(0.53945183,-0.09352429,0.11654697,0.50758442,-10.674068,11.106332)"
       sodipodi:t0="0.82855219"
       sodipodi:argument="-23.611382"
       sodipodi:radius="2.2893143"
       sodipodi:revolution="3.5308208"
       sodipodi:expansion="4.2149301"
       sodipodi:cy="7.179606"
       sodipodi:cx="33.31303"
       id="path4013"
       style="fill:none;fill-rule:evenodd;stroke:#000000;stroke-width:0.264583"
       sodipodi:type="spiral"
       d="M 33.825835,8.0799789 C 33.304629,8.5588923 32.486516,8.4061662 32.040916,7.9041349 31.389576,7.1703087 31.607904,6.038621 32.31584,5.4287576 32.683644,5.1119062 33.158534,4.9351216 33.642044,4.9140575" />
    <g
       transform="matrix(0.73723816,0,0,0.73723816,-24.388689,0.88269945)"
       id="g4061">
      <path
         id="path4015"
         style="font-variation-settings:normal;opacity:1;vector-effect:none;fill:#e0d489;fill-opacity:1;stroke:#000000;stroke-width:0.01;stroke-linecap:round;stroke-linejoin:round;stroke-miterlimit:4;stroke-dasharray:none;stroke-dashoffset:0;stroke-opacity:1;stop-color:#000000;stop-opacity:1"
         d="m 41.483256,10.721977 a 1.6244395,1.1913706 0 0 0 -1.552876,0.879053 1.6244395,1.1913706 0 0 0 1.567862,0.88027 1.6244395,1.1913706 0 0 0 1.567863,-0.879661 1.6244395,1.1913706 0 0 0 -1.567863,-0.879662 1.6244395,1.1913706 0 0 0 -0.01499,0 z" />
      <path
         d="m 41.483256,10.950843 a 1.6244395,0.88140367 0 0 0 -1.552876,0.650344 1.6244395,0.88140367 0 0 0 1.567862,0.651244 1.6244395,0.88140367 0 0 0 1.567863,-0.650794 1.6244395,0.88140367 0 0 0 -1.567863,-0.650794 1.6244395,0.88140367 0 0 0 -0.01499,0 z"
         style="font-variation-settings:normal;opacity:1;vector-effect:none;fill:#ffffff;fill-opacity:1;stroke:none;stroke-width:0.29647px;stroke-linecap:butt;stroke-linejoin:miter;stroke-miterlimit:4;stroke-dasharray:none;stroke-dashoffset:0;stroke-opacity:1;stop-color:#000000;stop-opacity:1"
         id="path4022" />
      <path
         id="path4040"
         style="font-variation-settings:normal;opacity:1;vector-effect:none;fill:#543404;fill-opacity:1;stroke:none;stroke-width:0.377953;stroke-linecap:butt;stroke-linejoin:miter;stroke-miterlimit:4;stroke-dasharray:none;stroke-dashoffset:0;stroke-opacity:1;stop-color:#000000;stop-opacity:1"
         d="m 156.78711,41.388672 a 6.1396139,3.3312895 0 0 0 -2.44727,0.289062 2.9889639,3.9959104 0 0 0 -0.54492,2.300782 2.9889639,3.9959104 0 0 0 0.4043,2.003906 6.1396139,3.3312895 0 0 0 2.64453,0.326172 6.1396139,3.3312895 0 0 0 2.51172,-0.292969 2.9889639,3.9959104 0 0 0 0.41797,-2.037109 2.9889639,3.9959104 0 0 0 -0.5625,-2.332032 6.1396139,3.3312895 0 0 0 -2.36719,-0.257812 6.1396139,3.3312895 0 0 0 -0.0566,0 z"
         transform="scale(0.26458333)" />
      <path
         id="ellipse4042"
         style="font-variation-settings:normal;opacity:1;vector-effect:none;fill:#000000;fill-opacity:1;stroke:none;stroke-width:0.0251069;stroke-linecap:round;stroke-linejoin:round;stroke-miterlimit:4;stroke-dasharray:none;stroke-dashoffset:0;stroke-opacity:1;stop-color:#000000;stop-opacity:1"
         d="m 156.78711,41.388672 a 6.1396139,3.3312895 0 0 0 -0.47461,0.01172 1.9855254,2.6544255 0 0 0 -1.51367,2.578125 1.9855254,2.6544255 0 0 0 0.96875,2.277343 6.1396139,3.3312895 0 0 0 1.07617,0.05273 6.1396139,3.3312895 0 0 0 0.94336,-0.04102 1.9855254,2.6544255 0 0 0 0.98242,-2.289062 1.9855254,2.6544255 0 0 0 -1.52539,-2.582032 6.1396139,3.3312895 0 0 0 -0.40039,-0.0078 6.1396139,3.3312895 0 0 0 -0.0566,0 z"
         transform="scale(0.26458333)" />
    </g>
    <g
       id="g4071"
       transform="matrix(0.73723816,0,0,0.73723816,-20.003558,0.88063145)">
      <path
         d="m 41.483256,10.721977 a 1.6244395,1.1913706 0 0 0 -1.552876,0.879053 1.6244395,1.1913706 0 0 0 1.567862,0.88027 1.6244395,1.1913706 0 0 0 1.567863,-0.879661 1.6244395,1.1913706 0 0 0 -1.567863,-0.879662 1.6244395,1.1913706 0 0 0 -0.01499,0 z"
         style="font-variation-settings:normal;opacity:1;vector-effect:none;fill:#e0d489;fill-opacity:1;stroke:#000000;stroke-width:0.01;stroke-linecap:round;stroke-linejoin:round;stroke-miterlimit:4;stroke-dasharray:none;stroke-dashoffset:0;stroke-opacity:1;stop-color:#000000;stop-opacity:1"
         id="path4063" />
      <path
         id="path4065"
         style="font-variation-settings:normal;opacity:1;vector-effect:none;fill:#ffffff;fill-opacity:1;stroke:none;stroke-width:0.29647px;stroke-linecap:butt;stroke-linejoin:miter;stroke-miterlimit:4;stroke-dasharray:none;stroke-dashoffset:0;stroke-opacity:1;stop-color:#000000;stop-opacity:1"
         d="m 41.483256,10.950843 a 1.6244395,0.88140367 0 0 0 -1.552876,0.650344 1.6244395,0.88140367 0 0 0 1.567862,0.651244 1.6244395,0.88140367 0 0 0 1.567863,-0.650794 1.6244395,0.88140367 0 0 0 -1.567863,-0.650794 1.6244395,0.88140367 0 0 0 -0.01499,0 z" />
      <path
         transform="scale(0.26458333)"
         d="m 156.78711,41.388672 a 6.1396139,3.3312895 0 0 0 -2.44727,0.289062 2.9889639,3.9959104 0 0 0 -0.54492,2.300782 2.9889639,3.9959104 0 0 0 0.4043,2.003906 6.1396139,3.3312895 0 0 0 2.64453,0.326172 6.1396139,3.3312895 0 0 0 2.51172,-0.292969 2.9889639,3.9959104 0 0 0 0.41797,-2.037109 2.9889639,3.9959104 0 0 0 -0.5625,-2.332032 6.1396139,3.3312895 0 0 0 -2.36719,-0.257812 6.1396139,3.3312895 0 0 0 -0.0566,0 z"
         style="font-variation-settings:normal;opacity:1;vector-effect:none;fill:#543404;fill-opacity:1;stroke:none;stroke-width:0.377953;stroke-linecap:butt;stroke-linejoin:miter;stroke-miterlimit:4;stroke-dasharray:none;stroke-dashoffset:0;stroke-opacity:1;stop-color:#000000;stop-opacity:1"
         id="path4067" />
      <path
         transform="scale(0.26458333)"
         d="m 156.78711,41.388672 a 6.1396139,3.3312895 0 0 0 -0.47461,0.01172 1.9855254,2.6544255 0 0 0 -1.51367,2.578125 1.9855254,2.6544255 0 0 0 0.96875,2.277343 6.1396139,3.3312895 0 0 0 1.07617,0.05273 6.1396139,3.3312895 0 0 0 0.94336,-0.04102 1.9855254,2.6544255 0 0 0 0.98242,-2.289062 1.9855254,2.6544255 0 0 0 -1.52539,-2.582032 6.1396139,3.3312895 0 0 0 -0.40039,-0.0078 6.1396139,3.3312895 0 0 0 -0.0566,0 z"
         style="font-variation-settings:normal;opacity:1;vector-effect:none;fill:#000000;fill-opacity:1;stroke:none;stroke-width:0.0251069;stroke-linecap:round;stroke-linejoin:round;stroke-miterlimit:4;stroke-dasharray:none;stroke-dashoffset:0;stroke-opacity:1;stop-color:#000000;stop-opacity:1"
         id="path4069" />
    </g>
    <rect
       transform="rotate(3.4187239)"
       ry="0.27968705"
       y="7.5774832"
       x="5.5937014"
       height="0.55937409"
       width="1.9329866"
       id="rect4207"
       style="font-variation-settings:normal;vector-effect:none;fill:#25241f;fill-opacity:1;stroke:none;stroke-width:0.234206px;stroke-linecap:butt;stroke-linejoin:miter;stroke-miterlimit:4;stroke-dasharray:none;stroke-dashoffset:0;stroke-opacity:1;stop-color:#000000" />
    <ellipse
       style="font-variation-settings:normal;vector-effect:none;fill:#3c2b08;fill-opacity:1;stroke:#000000;stroke-width:0.0651226;stroke-linecap:butt;stroke-linejoin:miter;stroke-miterlimit:4;stroke-dasharray:none;stroke-dashoffset:0;stroke-opacity:1;stop-color:#000000"
       id="path1096"
       cx="8.4165926"
       cy="5.6381049"
       rx="8.1094475"
       ry="2.3272843" />
    <g
       id="g1138"
       transform="matrix(0.73723816,0,0,0.73723816,-24.314654,-0.46163255)">
      <path
         id="path1098"
         style="fill:#ffffff;fill-opacity:1;fill-rule:evenodd;stroke:#000000;stroke-width:1.31651"
         d="m 178.85547,61.921875 c -1.43375,6.434307 -8.36832,9.989537 -14.64844,8.912109 -4.93466,-0.846599 -9.11059,-4.197372 -11.40625,-8.583984 l -0.22656,0.0059 c 2.18767,8.252012 6.50419,14.643019 11.64648,16.199219 6.39962,1.936704 13.49389,-4.678875 14.63477,-16.533203 z"
         transform="scale(0.26458333)" />
      <path
         sodipodi:type="spiral"
         style="fill:none;fill-rule:evenodd;stroke:#000000;stroke-width:0.264583;stroke-opacity:0.209677"
         id="path1112"
         sodipodi:cx="40.758602"
         sodipodi:cy="16.854685"
         sodipodi:expansion="4.2149301"
         sodipodi:revolution="3.3045199"
         sodipodi:radius="5.6298351"
         sodipodi:argument="-17.794271"
         sodipodi:t0="0.87839401"
         transform="matrix(0.68864983,0,0,0.67980877,16.687658,5.3077752)"
         d="m 43.702415,18.254067 c -0.479494,2.178736 -2.869033,3.261248 -4.926122,2.770709 -1.639165,-0.39088 -2.955335,-1.648085 -3.563533,-3.20124" />
    </g>
    <path
       id="rect1114"
       style="font-variation-settings:normal;vector-effect:none;fill:#3c2b08;fill-opacity:1;stroke:#000000;stroke-width:0.0761648;stroke-linecap:butt;stroke-linejoin:miter;stroke-miterlimit:4;stroke-dasharray:none;stroke-dashoffset:0;stroke-opacity:1;stop-color:#000000"
       d="m 8.5847307,1.1460115 a 4.5052126,1.2773393 0 0 0 -4.505697,1.277381 4.5052126,1.2773393 0 0 0 0.1336539,0.307654 c -0.00442,0.02723 -0.010174,0.05457 -0.010174,0.08235 v 2.3932879 c 0,0.5810145 1.0736621,1.0488467 2.4070826,1.0488467 H 10.62119 c 1.33342,0 2.407082,-0.4678322 2.407082,-1.0488467 V 2.8134015 c 0,-0.04822 -0.01069,-0.09531 -0.02499,-0.141768 a 4.5052126,1.2773393 0 0 0 0.08642,-0.248241 4.5052126,1.2773393 0 0 0 -4.5050193,-1.277381 z" />
    <rect
       transform="matrix(-0.99822039,0.05963259,0.05963259,0.99822039,0,0)"
       ry="0.27968702"
       y="8.5788431"
       x="-11.168571"
       height="0.55937403"
       width="1.9329866"
       id="rect1140"
       style="font-variation-settings:normal;vector-effect:none;fill:#25241f;fill-opacity:1;stroke:none;stroke-width:0.234206px;stroke-linecap:butt;stroke-linejoin:miter;stroke-miterlimit:4;stroke-dasharray:none;stroke-dashoffset:0;stroke-opacity:1;stop-color:#000000" />
    <rect
       style="font-variation-settings:normal;vector-effect:none;fill:#25241f;fill-opacity:1;stroke:none;stroke-width:0.234206px;stroke-linecap:butt;stroke-linejoin:miter;stroke-miterlimit:4;stroke-dasharray:none;stroke-dashoffset:0;stroke-opacity:1;stop-color:#000000"
       id="rect1302"
       width="2.1674542"
       height="0.73890483"
       x="9.7602415"
       y="8.2799301"
       ry="0.36945242"
       transform="rotate(22.815623)" />
    <rect
       style="font-variation-settings:normal;vector-effect:none;fill:#25241f;fill-opacity:1;stroke:none;stroke-width:0.234206px;stroke-linecap:butt;stroke-linejoin:miter;stroke-miterlimit:4;stroke-dasharray:none;stroke-dashoffset:0;stroke-opacity:1;stop-color:#000000"
       id="rect1321"
       width="2.1674542"
       height="0.73890483"
       x="-5.0007639"
       y="14.489622"
       ry="0.36945242"
       transform="matrix(-0.92175745,0.38776694,0.38776694,0.92175745,0,0)" />
    <path
       id="path1544"
       style="font-variation-settings:normal;vector-effect:none;fill:#2b2006;fill-opacity:1;stroke:none;stroke-width:0.24186px;stroke-linecap:butt;stroke-linejoin:miter;stroke-miterlimit:4;stroke-dasharray:none;stroke-dashoffset:0;stroke-opacity:1;stop-color:#000000"
       d="m 13.009635,2.6965685 a 5.1477168,3.5101186 0 0 1 -4.4715413,1.77155 5.1477168,3.5101186 0 0 1 -4.3355358,-1.618015 v 1.588299 A 5.1477168,3.5101186 0 0 0 8.5380937,6.0564176 5.1477168,3.5101186 0 0 0 13.028302,4.2627705 v -1.449241 c 0,-0.03968 -0.0081,-0.07852 -0.01865,-0.116961 z" />
    <ellipse
       style="font-variation-settings:normal;vector-effect:none;fill:#ffffff;fill-opacity:1;stroke:#000000;stroke-width:0.196299;stroke-linecap:butt;stroke-linejoin:miter;stroke-miterlimit:4;stroke-dasharray:none;stroke-dashoffset:0;stroke-opacity:1;stop-color:#000000"
       id="ellipse1798"
       cx="25.941988"
       cy="8.1495981"
       rx="4.1058025"
       ry="3.149745" />
    <path
       id="path1828"
       style="font-variation-settings:normal;vector-effect:none;fill:#ffffff;fill-opacity:1;stroke:#000000;stroke-width:0.257912;stroke-linecap:butt;stroke-linejoin:miter;stroke-miterlimit:4;stroke-dasharray:none;stroke-dashoffset:0;stroke-opacity:1;stop-color:#000000"
       inkscape:transform-center-x="-0.32117883"
       inkscape:transform-center-y="-0.18032863"
       d="m 21.012778,14.857835 c -0.05286,-3.47e-4 -0.100869,0.0066 -0.142869,0.02172 -0.672037,0.242531 -1.175814,3.055698 -0.629757,3.516428 0.06244,0.05271 0.155624,0.08469 0.267065,0.102483 0.103368,0.552722 0.309072,1.184137 0.579852,1.837463 -0.270736,0.653237 -0.476499,1.284424 -0.579852,1.837072 -0.111441,0.01784 -0.204621,0.04976 -0.267065,0.102484 -0.546057,0.460737 -0.04232,3.273905 0.629757,3.516434 0.04202,0.01519 0.09,0.02204 0.142869,0.02168 0.448049,-0.003 1.250894,-0.534557 1.845455,-1.115124 0.334322,0.05323 0.69697,0.08943 1.069408,0.117338 0.589901,0.596006 1.167085,0.976812 1.651922,0.997027 0.549817,0.02293 1.262336,-0.406071 2.000901,-1.08579 0.519252,-0.06325 1.017691,-0.147315 1.473621,-0.251826 0.668078,0.67809 1.651672,1.317976 2.064908,1.16884 0.672008,-0.24253 1.175807,-3.05569 0.629757,-3.516427 -0.07678,-0.0648 -0.199069,-0.09871 -0.347453,-0.111626 -0.111972,-0.501277 -0.332244,-1.07751 -0.624802,-1.680121 0.292624,-0.602714 0.512808,-1.179131 0.624802,-1.68049 0.148391,-0.0129 0.270677,-0.04689 0.347453,-0.111633 0.546057,-0.460729 0.04224,-3.273895 -0.629757,-3.516427 -0.413244,-0.149134 -1.39683,0.490752 -2.064908,1.168842 -0.45593,-0.104512 -0.954369,-0.188552 -1.473621,-0.251827 -0.738558,-0.679711 -1.451091,-1.108712 -2.000901,-1.085789 -0.484734,0.02021 -1.061771,0.401239 -1.651539,0.997021 -0.372578,0.02792 -0.735351,0.06409 -1.069791,0.117341 -0.594561,-0.580566 -1.397406,-1.112182 -1.845455,-1.115124 z" />
    <path
       id="path1804"
       style="font-variation-settings:normal;vector-effect:none;fill:#ffffff;fill-opacity:1;stroke:#000000;stroke-width:0.234547;stroke-linecap:butt;stroke-linejoin:miter;stroke-miterlimit:4;stroke-dasharray:none;stroke-dashoffset:0;stroke-opacity:1;stop-color:#000000"
       d="m 23.823609,11.770646 c -0.155786,0 -0.281264,0.125487 -0.281264,0.281267 v 1.492456 a 2.2495476,1.2747436 0 0 0 -0.07482,0.325921 2.2495476,1.2747436 0 0 0 2.249557,1.27469 2.2495476,1.2747436 0 0 0 2.249262,-1.251782 c 2.2e-5,-0.0015 2.95e-4,-0.0029 2.95e-4,-0.0044 v -0.01856 -1.818377 c 0,-0.155781 -0.125492,-0.281267 -0.281271,-0.281267 z" />
    <g
       transform="matrix(0.56111838,0,0,0.56111838,0.80459345,1.036441)"
       id="g1810"
       style="font-variation-settings:normal;vector-effect:none;fill:#ffffff;fill-opacity:1;stroke:#000000;stroke-width:0.349834;stroke-linecap:butt;stroke-linejoin:miter;stroke-miterlimit:4;stroke-dasharray:none;stroke-dashoffset:0;stroke-opacity:1;stop-color:#000000">
      <path
         id="path1806"
         style="font-variation-settings:normal;opacity:1;vector-effect:none;fill:#ffffff;fill-opacity:1;stroke:#000000;stroke-width:0.349834;stroke-linecap:butt;stroke-linejoin:miter;stroke-miterlimit:4;stroke-dasharray:none;stroke-dashoffset:0;stroke-opacity:1;stop-color:#000000;stop-opacity:1"
         d="m 41.483256,10.721977 a 1.6244395,1.1913706 0 0 0 -1.552876,0.879053 1.6244395,1.1913706 0 0 0 1.567862,0.88027 1.6244395,1.1913706 0 0 0 1.567863,-0.879661 1.6244395,1.1913706 0 0 0 -1.567863,-0.879662 1.6244395,1.1913706 0 0 0 -0.01499,0 z" />
      <path
         id="path1808"
         style="font-variation-settings:normal;opacity:1;vector-effect:none;fill:#ff1111;fill-opacity:1;stroke:#ff1111;stroke-width:1.32221;stroke-linecap:butt;stroke-linejoin:miter;stroke-miterlimit:4;stroke-dasharray:none;stroke-dashoffset:0;stroke-opacity:1;stop-color:#000000;stop-opacity:1"
         d="m 156.78711,41.388672 a 6.1396139,3.3312895 0 0 0 -0.47461,0.01172 1.9855254,2.6544255 0 0 0 -1.51367,2.578125 1.9855254,2.6544255 0 0 0 0.96875,2.277343 6.1396139,3.3312895 0 0 0 1.07617,0.05273 6.1396139,3.3312895 0 0 0 0.94336,-0.04102 1.9855254,2.6544255 0 0 0 0.98242,-2.289062 1.9855254,2.6544255 0 0 0 -1.52539,-2.582032 6.1396139,3.3312895 0 0 0 -0.40039,-0.0078 6.1396139,3.3312895 0 0 0 -0.0566,0 z"
         transform="scale(0.26458333)" />
    </g>
    <g
       id="g1816"
       transform="matrix(0.56111838,0,0,0.56111838,4.1421595,1.034867)"
       style="font-variation-settings:normal;vector-effect:none;fill:#ffffff;fill-opacity:1;stroke:#000000;stroke-width:0.349834;stroke-linecap:butt;stroke-linejoin:miter;stroke-miterlimit:4;stroke-dasharray:none;stroke-dashoffset:0;stroke-opacity:1;stop-color:#000000">
      <path
         d="m 41.483256,10.721977 a 1.6244395,1.1913706 0 0 0 -1.552876,0.879053 1.6244395,1.1913706 0 0 0 1.567862,0.88027 1.6244395,1.1913706 0 0 0 1.567863,-0.879661 1.6244395,1.1913706 0 0 0 -1.567863,-0.879662 1.6244395,1.1913706 0 0 0 -0.01499,0 z"
         style="font-variation-settings:normal;opacity:1;vector-effect:none;fill:#ffffff;fill-opacity:1;stroke:#000000;stroke-width:0.349834;stroke-linecap:butt;stroke-linejoin:miter;stroke-miterlimit:4;stroke-dasharray:none;stroke-dashoffset:0;stroke-opacity:1;stop-color:#000000;stop-opacity:1"
         id="path1812" />
      <path
         transform="scale(0.26458333)"
         d="m 156.78711,41.388672 a 6.1396139,3.3312895 0 0 0 -0.47461,0.01172 1.9855254,2.6544255 0 0 0 -1.51367,2.578125 1.9855254,2.6544255 0 0 0 0.96875,2.277343 6.1396139,3.3312895 0 0 0 1.07617,0.05273 6.1396139,3.3312895 0 0 0 0.94336,-0.04102 1.9855254,2.6544255 0 0 0 0.98242,-2.289062 1.9855254,2.6544255 0 0 0 -1.52539,-2.582032 6.1396139,3.3312895 0 0 0 -0.40039,-0.0078 6.1396139,3.3312895 0 0 0 -0.0566,0 z"
         style="font-variation-settings:normal;opacity:1;vector-effect:none;fill:#ff1111;fill-opacity:1;stroke:#ff1111;stroke-width:1.32221;stroke-linecap:butt;stroke-linejoin:miter;stroke-miterlimit:4;stroke-dasharray:none;stroke-dashoffset:0;stroke-opacity:1;stop-color:#000000;stop-opacity:1"
         id="path1814" />
    </g>
    <g
       transform="matrix(0.56111838,0,0,0.56111838,0.80459345,1.036441)"
       id="g1822"
       style="font-variation-settings:normal;vector-effect:none;fill:#ffffff;fill-opacity:1;stroke:#000000;stroke-width:0.349834;stroke-linecap:butt;stroke-linejoin:miter;stroke-miterlimit:4;stroke-dasharray:none;stroke-dashoffset:0;stroke-opacity:1;stop-color:#000000">
      <path
         id="path1818"
         style="font-variation-settings:normal;opacity:1;vector-effect:none;fill:#ffffff;fill-opacity:1;stroke:#000000;stroke-width:0.349834;stroke-linecap:butt;stroke-linejoin:miter;stroke-miterlimit:4;stroke-dasharray:none;stroke-dashoffset:0;stroke-opacity:1;stop-color:#000000;stop-opacity:1"
         d="m 41.483256,10.721977 a 1.6244395,1.1913706 0 0 0 -1.552876,0.879053 1.6244395,1.1913706 0 0 0 1.567862,0.88027 1.6244395,1.1913706 0 0 0 1.567863,-0.879661 1.6244395,1.1913706 0 0 0 -1.567863,-0.879662 1.6244395,1.1913706 0 0 0 -0.01499,0 z" />
      <path
         id="path1820"
         style="font-variation-settings:normal;opacity:1;vector-effect:none;fill:#ff1111;fill-opacity:1;stroke:#ff1111;stroke-width:1.32221;stroke-linecap:butt;stroke-linejoin:miter;stroke-miterlimit:4;stroke-dasharray:none;stroke-dashoffset:0;stroke-opacity:1;stop-color:#000000;stop-opacity:1"
         d="m 156.78711,41.388672 a 6.1396139,3.3312895 0 0 0 -0.47461,0.01172 1.9855254,2.6544255 0 0 0 -1.51367,2.578125 1.9855254,2.6544255 0 0 0 0.96875,2.277343 6.1396139,3.3312895 0 0 0 1.07617,0.05273 6.1396139,3.3312895 0 0 0 0.94336,-0.04102 1.9855254,2.6544255 0 0 0 0.98242,-2.289062 1.9855254,2.6544255 0 0 0 -1.52539,-2.582032 6.1396139,3.3312895 0 0 0 -0.40039,-0.0078 6.1396139,3.3312895 0 0 0 -0.0566,0 z"
         transform="scale(0.26458333)" />
    </g>
    <path
       sodipodi:type="star"
       style="font-variation-settings:normal;vector-effect:none;fill:#ffffff;fill-opacity:1;stroke:#000000;stroke-width:0.196299;stroke-linecap:butt;stroke-linejoin:miter;stroke-miterlimit:4;stroke-dasharray:none;stroke-dashoffset:0;stroke-opacity:1;stop-color:#000000"
       id="path1824"
       sodipodi:sides="3"
       sodipodi:cx="25.751513"
       sodipodi:cy="9.5525513"
       sodipodi:r1="0.92599541"
       sodipodi:r2="0.4629977"
       sodipodi:arg1="0.5543075"
       sodipodi:arg2="1.601505"
       inkscape:flatsided="true"
       inkscape:rounded="0.2"
       inkscape:randomized="0"
       inkscape:transform-center-x="0.014403711"
       inkscape:transform-center-y="-0.17177155"
       d="m 26.538854,10.039953 c -0.168841,0.272743 -1.451333,0.233347 -1.603115,-0.049245 -0.151782,-0.2825921 0.523582,-1.3735647 0.844205,-1.3637157 0.320623,0.00985 0.927751,1.1402177 0.75891,1.4129606 z" />
    <path
       id="path1830"
       style="font-variation-settings:normal;vector-effect:none;fill:#ffffff;fill-opacity:1;stroke:#000000;stroke-width:0.206478;stroke-linecap:butt;stroke-linejoin:miter;stroke-miterlimit:4;stroke-dasharray:none;stroke-dashoffset:0;stroke-opacity:1;stop-color:#000000"
       inkscape:transform-center-x="2.8592993"
       inkscape:transform-center-y="2.8101999"
       d="m 19.565358,16.009335 a 1.439436,0.96619669 31.823993 0 1 0.740844,0.279917 1.439436,0.96619669 31.823993 0 1 0.713521,1.579892 1.439436,0.96619669 31.823993 0 1 -1.37147,0.24087 c -0.02145,0.02219 -0.04018,0.04512 -0.06296,0.06679 l -3.876221,3.686479 c -0.04416,0.04202 -0.09001,0.07858 -0.135571,0.115665 a 1.439436,0.96619669 31.823993 0 1 0.0606,0.924747 1.439436,0.96619669 31.823993 0 1 -1.732428,0.06222 1.439436,0.96619669 31.823993 0 1 -0.71378,-1.58024 1.439436,0.96619669 31.823993 0 1 1.378201,-0.238401 c 0.0665,-0.08542 0.138932,-0.169941 0.223597,-0.250469 l 3.831345,-3.644285 a 1.439436,0.96619669 31.823993 0 1 -0.04726,-0.901361 1.439436,0.96619669 31.823993 0 1 0.991541,-0.341798 z" />
    <path
       id="path1840"
       style="font-variation-settings:normal;vector-effect:none;fill:#ffffff;fill-opacity:1;stroke:#000000;stroke-width:0.206478;stroke-linecap:butt;stroke-linejoin:miter;stroke-miterlimit:4;stroke-dasharray:none;stroke-dashoffset:0;stroke-opacity:1;stop-color:#000000"
       inkscape:transform-center-x="-2.8593016"
       inkscape:transform-center-y="2.8101999"
       d="m 31.870387,16.566652 a 0.96619669,1.439436 58.176007 0 0 -0.740844,0.279918 0.96619669,1.439436 58.176007 0 0 -0.713521,1.579897 0.96619669,1.439436 58.176007 0 0 1.37147,0.240863 c 0.02145,0.02219 0.04018,0.04512 0.06296,0.06679 l 3.876221,3.686479 c 0.04416,0.04202 0.09001,0.07858 0.135571,0.115665 a 0.96619669,1.439436 58.176007 0 0 -0.0606,0.924755 0.96619669,1.439436 58.176007 0 0 1.732428,0.06222 0.96619669,1.439436 58.176007 0 0 0.71378,-1.580241 0.96619669,1.439436 58.176007 0 0 -1.378202,-0.238408 c -0.0665,-0.08542 -0.138932,-0.169941 -0.223597,-0.250469 l -3.831345,-3.644286 a 0.96619669,1.439436 58.176007 0 0 0.04726,-0.901358 0.96619669,1.439436 58.176007 0 0 -0.991542,-0.341798 z" />
  </g>
</svg>
