<?xml version="1.0" encoding="UTF-8" standalone="no"?>
<svg
   xmlns:dc="http://purl.org/dc/elements/1.1/"
   xmlns:cc="http://creativecommons.org/ns#"
   xmlns:rdf="http://www.w3.org/1999/02/22-rdf-syntax-ns#"
   xmlns:svg="http://www.w3.org/2000/svg"
   xmlns="http://www.w3.org/2000/svg"
   xmlns:sodipodi="http://sodipodi.sourceforge.net/DTD/sodipodi-0.dtd"
   xmlns:inkscape="http://www.inkscape.org/namespaces/inkscape"
   width="640"
   height="480"
   viewBox="0 0 169.33333 127"
   version="1.1"
   id="svg1868"
   inkscape:version="1.0.2-2 (e86c870879, 2021-01-15)"
   sodipodi:docname="Splash.svg"
   inkscape:export-filename="C:\Users\Silvio Mayolo\Documents\LennyAndBones\Splash.png"
   inkscape:export-xdpi="96"
   inkscape:export-ydpi="96">
  <defs
     id="defs1862" />
  <sodipodi:namedview
     id="base"
     pagecolor="#ffffff"
     bordercolor="#666666"
     borderopacity="1.0"
     inkscape:pageopacity="0.0"
     inkscape:pageshadow="2"
     inkscape:zoom="0.98994949"
     inkscape:cx="176.52889"
     inkscape:cy="331.05353"
     inkscape:document-units="mm"
     inkscape:current-layer="layer1"
     inkscape:document-rotation="0"
     showgrid="false"
     inkscape:window-width="1920"
     inkscape:window-height="1017"
     inkscape:window-x="-8"
     inkscape:window-y="-8"
     inkscape:window-maximized="1"
     units="px"
     inkscape:snap-global="false" />
  <metadata
     id="metadata1865">
    <rdf:RDF>
      <cc:Work
         rdf:about="">
        <dc:format>image/svg+xml</dc:format>
        <dc:type
           rdf:resource="http://purl.org/dc/dcmitype/StillImage" />
        <dc:title></dc:title>
      </cc:Work>
    </rdf:RDF>
  </metadata>
  <g
     inkscape:label="Layer 1"
     inkscape:groupmode="layer"
     id="layer1">
    <rect
       style="fill:#d56915;fill-opacity:1;stroke:none;stroke-width:0.0499999;stroke-miterlimit:4;stroke-dasharray:none;stroke-opacity:1;stop-color:#000000"
       id="rect2490"
       width="186.28685"
       height="101.82969"
       x="-5.3453903"
       y="-4.8108511" />
    <rect
       style="font-variation-settings:normal;opacity:1;vector-effect:none;fill:#d5ab15;fill-opacity:1;stroke:#000000;stroke-width:0.051;stroke-linecap:butt;stroke-linejoin:miter;stroke-miterlimit:4;stroke-dasharray:none;stroke-dashoffset:0;stroke-opacity:1;stop-color:#000000;stop-opacity:1"
       id="rect2899"
       width="188.9586"
       height="107.70867"
       x="-5.879457"
       y="31.538277"
       ry="2.939939" />
    <g
       id="g2531"
       transform="matrix(0.74201473,0,0,0.74201473,-77.137245,30.111674)">
      <path
         style="font-variation-settings:normal;opacity:1;vector-effect:none;fill:#d5ab15;fill-opacity:1;stroke:#000000;stroke-width:0.0693576;stroke-linecap:butt;stroke-linejoin:miter;stroke-miterlimit:4;stroke-dasharray:none;stroke-dashoffset:0;stroke-opacity:1;stop-color:#000000;stop-opacity:1"
         d="m 224.23913,25.390605 57.19567,35.546846 3.74179,-101.829688 z"
         id="path2496" />
      <path
         style="font-variation-settings:normal;opacity:1;vector-effect:none;fill:#d5ab15;fill-opacity:1;stroke:#000000;stroke-width:0.0693576;stroke-linecap:butt;stroke-linejoin:miter;stroke-miterlimit:4;stroke-dasharray:none;stroke-dashoffset:0;stroke-opacity:1;stop-color:#000000;stop-opacity:1"
         d="m 281.4348,60.937451 59.33384,-44.36674 -55.59205,-57.462948 z"
         id="path2498" />
      <path
         style="font-variation-settings:normal;opacity:1;vector-effect:none;fill:#757575;fill-opacity:1;stroke:#000000;stroke-width:0.0578154;stroke-linecap:butt;stroke-linejoin:miter;stroke-miterlimit:4;stroke-dasharray:none;stroke-dashoffset:0;stroke-opacity:1;stop-color:#000000;stop-opacity:1"
         d="m 229.30829,22.830496 47.67742,29.631301 3.1191,-84.883653 z"
         id="path2517" />
      <path
         style="font-variation-settings:normal;opacity:1;vector-effect:none;fill:#757575;fill-opacity:1;stroke:#000000;stroke-width:0.0599991;stroke-linecap:butt;stroke-linejoin:miter;stroke-miterlimit:4;stroke-dasharray:none;stroke-dashoffset:0;stroke-opacity:1;stop-color:#000000;stop-opacity:1"
         d="M 285.43881,54.066675 336.76665,15.686398 288.67571,-34.023 Z"
         id="path2519" />
      <path
         style="font-variation-settings:normal;opacity:1;vector-effect:none;fill:#d5ab15;fill-opacity:1;stroke:#000000;stroke-width:0.0537601;stroke-linecap:butt;stroke-linejoin:miter;stroke-miterlimit:4;stroke-dasharray:none;stroke-dashoffset:0;stroke-opacity:1;stop-color:#000000;stop-opacity:1"
         d="m 288.10815,49.486157 45.99051,-34.389301 -43.0902,-44.540364 z"
         id="path2521" />
      <path
         style="font-variation-settings:normal;opacity:1;vector-effect:none;fill:#d5ab15;fill-opacity:1;stroke:#000000;stroke-width:0.0530895;stroke-linecap:butt;stroke-linejoin:miter;stroke-miterlimit:4;stroke-dasharray:none;stroke-dashoffset:0;stroke-opacity:1;stop-color:#000000;stop-opacity:1"
         d="m 231.38385,21.782262 43.78019,27.209188 2.86414,-77.945118 z"
         id="path2523" />
    </g>
    <path
       sodipodi:type="spiral"
       style="fill:none;fill-rule:evenodd;stroke:#000000;stroke-width:0.051;stroke-miterlimit:4;stroke-dasharray:none"
       id="path2922"
       sodipodi:cx="13.096207"
       sodipodi:cy="51.850288"
       sodipodi:expansion="4.2149301"
       sodipodi:revolution="3.5817881"
       sodipodi:radius="13.497047"
       sodipodi:argument="-21.002317"
       sodipodi:t0="0.81676185"
       d="m 8.1070845,48.990183 c 1.1426228,-3.758623 5.4847915,-5.333712 9.0300935,-4.188901 5.182218,1.673388 7.32725,7.699774 5.660786,12.610715 -1.340051,3.949026 -4.787725,6.870037 -8.783647,7.904076"
       transform="matrix(-0.49390878,-0.67036826,-0.59107515,0.56016696,74.554338,73.516091)" />
    <g
       id="g2744"
       transform="matrix(1.3579305,0,0,1.3579305,-138.64472,-55.300771)">
      <rect
         transform="rotate(39.112753)"
         ry="2.1031814"
         y="-8.8181105"
         x="163.3788"
         height="13.342167"
         width="3.7422025"
         id="rect3009"
         style="font-variation-settings:normal;vector-effect:none;fill:#967521;fill-opacity:1;stroke:none;stroke-width:0.264583px;stroke-linecap:butt;stroke-linejoin:miter;stroke-miterlimit:4;stroke-dasharray:none;stroke-dashoffset:0;stroke-opacity:1;stop-color:#000000"
         inkscape:transform-center-x="2.8723128"
         inkscape:transform-center-y="3.8604462" />
      <rect
         ry="0.80759084"
         y="92.755737"
         x="136.00156"
         height="5.8817472"
         width="4.2598319"
         id="rect3043"
         style="font-variation-settings:normal;vector-effect:none;fill:#c6a03d;fill-opacity:1;stroke:none;stroke-width:0.765;stroke-linecap:round;stroke-linejoin:round;stroke-miterlimit:4;stroke-dasharray:none;stroke-dashoffset:0;stroke-opacity:1;stop-color:#000000" />
      <rect
         transform="rotate(4.3450522)"
         ry="2.1679108"
         y="107.44416"
         x="142.86052"
         height="17.997866"
         width="4.77179"
         id="rect3045"
         style="font-variation-settings:normal;vector-effect:none;fill:#604a15;fill-opacity:1;stroke:none;stroke-width:0.264583px;stroke-linecap:butt;stroke-linejoin:miter;stroke-miterlimit:4;stroke-dasharray:none;stroke-dashoffset:0;stroke-opacity:1;stop-color:#000000" />
      <rect
         style="font-variation-settings:normal;vector-effect:none;fill:#967521;fill-opacity:1;stroke:none;stroke-width:0.264583px;stroke-linecap:butt;stroke-linejoin:miter;stroke-miterlimit:4;stroke-dasharray:none;stroke-dashoffset:0;stroke-opacity:1;stop-color:#000000"
         id="rect3013"
         width="3.941803"
         height="12.279905"
         x="6.045258"
         y="163.46721"
         ry="2.1031814"
         transform="rotate(-46.837476)"
         inkscape:transform-center-x="-3.384929"
         inkscape:transform-center-y="3.0733291" />
      <path
         id="path3017"
         style="font-variation-settings:normal;vector-effect:none;fill:#c6a03d;fill-opacity:1;stroke:none;stroke-width:0.765;stroke-linecap:round;stroke-linejoin:round;stroke-miterlimit:4;stroke-dasharray:none;stroke-dashoffset:0;stroke-opacity:1;stop-color:#000000"
         d="m 133.75418,110.94107 a 2.4889474,2.4889474 0 0 0 -2.46859,2.48873 2.4889474,2.4889474 0 0 0 2.48874,2.48926 2.4889474,2.4889474 0 0 0 2.48925,-2.48926 2.4889474,2.4889474 0 0 0 -2.48925,-2.48873 2.4889474,2.4889474 0 0 0 -0.0202,0 z" />
      <path
         id="rect3007"
         style="font-variation-settings:normal;vector-effect:none;fill:#967521;fill-opacity:1;stroke:none;stroke-width:0.264583px;stroke-linecap:butt;stroke-linejoin:miter;stroke-miterlimit:4;stroke-dasharray:none;stroke-dashoffset:0;stroke-opacity:1;stop-color:#000000"
         d="m 132.48979,96.518959 h 11.41338 l 1.46998,25.603011 -14.01925,0.0668 z"
         sodipodi:nodetypes="ccccc" />
      <rect
         style="font-variation-settings:normal;vector-effect:none;fill:#604a15;fill-opacity:1;stroke:none;stroke-width:0.264583px;stroke-linecap:butt;stroke-linejoin:miter;stroke-miterlimit:4;stroke-dasharray:none;stroke-dashoffset:0;stroke-opacity:1;stop-color:#000000"
         id="rect3051"
         width="4.77179"
         height="17.997866"
         x="144.12987"
         y="113.78632"
         ry="2.1679108"
         transform="rotate(2.4396616)" />
      <path
         id="path3076"
         style="font-variation-settings:normal;vector-effect:none;fill:#1c1916;fill-opacity:1;stroke:none;stroke-width:0.253946;stroke-linecap:butt;stroke-linejoin:miter;stroke-miterlimit:4;stroke-dasharray:none;stroke-dashoffset:0;stroke-opacity:1;stop-color:#000000"
         d="m 128.64493,146.85546 a 2.7395127,2.9900776 0 0 0 -2.70474,2.99 2.7395127,2.9900776 0 0 0 1.19734,2.47117 c 0.18168,0.3138 0.51728,0.52607 0.90744,0.52607 h 7.04918 c 0.22383,0 0.43031,-0.0698 0.60048,-0.18811 a 2.88163,2.88163 0 0 0 0.20981,0.009 2.88163,2.88163 0 0 0 2.88147,-2.88199 2.88163,2.88163 0 0 0 -2.88147,-2.88148 2.88163,2.88163 0 0 0 -0.93276,0.15554 c -0.16899,-0.11052 -0.37075,-0.1757 -0.5886,-0.1757 l -5.35833,-5.1e-4 a 2.7395127,2.9900776 0 0 0 -0.34519,-0.0238 2.7395127,2.9900776 0 0 0 -0.0346,0 z" />
      <rect
         style="font-variation-settings:normal;vector-effect:none;fill:#604a15;fill-opacity:1;stroke:none;stroke-width:0.264583px;stroke-linecap:butt;stroke-linejoin:miter;stroke-miterlimit:4;stroke-dasharray:none;stroke-dashoffset:0;stroke-opacity:1;stop-color:#000000"
         id="rect3055"
         width="4.9328585"
         height="15.552247"
         x="127.77709"
         y="138.5341"
         ry="2.1679108"
         transform="rotate(-2.1829333)" />
      <path
         id="path973"
         style="font-variation-settings:normal;vector-effect:none;fill:#1c1916;fill-opacity:1;stroke:none;stroke-width:0.253946;stroke-linecap:butt;stroke-linejoin:miter;stroke-miterlimit:4;stroke-dasharray:none;stroke-dashoffset:0;stroke-opacity:1;stop-color:#000000"
         d="m 134.59168,149.26089 a 2.7395127,2.9900776 0 0 0 -2.70475,2.99 2.7395127,2.9900776 0 0 0 1.19735,2.47117 c 0.18168,0.3138 0.51728,0.52606 0.90743,0.52606 h 7.04919 c 0.22383,0 0.43031,-0.0698 0.60048,-0.1881 a 2.88163,2.88163 0 0 0 0.2098,0.009 2.88163,2.88163 0 0 0 2.88148,-2.882 2.88163,2.88163 0 0 0 -2.88148,-2.88148 2.88163,2.88163 0 0 0 -0.93276,0.15555 c -0.16899,-0.11052 -0.37075,-0.1757 -0.58859,-0.1757 l -5.35833,-5.2e-4 a 2.7395127,2.9900776 0 0 0 -0.3452,-0.0238 2.7395127,2.9900776 0 0 0 -0.0346,0 z" />
      <rect
         transform="rotate(-2.1829333)"
         ry="2.1679108"
         y="141.22763"
         x="132.88187"
         height="15.552247"
         width="4.9328585"
         id="rect3053"
         style="font-variation-settings:normal;vector-effect:none;fill:#604a15;fill-opacity:1;stroke:none;stroke-width:0.264583px;stroke-linecap:butt;stroke-linejoin:miter;stroke-miterlimit:4;stroke-dasharray:none;stroke-dashoffset:0;stroke-opacity:1;stop-color:#000000" />
      <ellipse
         ry="4.9628749"
         rx="7.4285793"
         cy="85.097313"
         cx="138.34546"
         id="path3990"
         style="font-variation-settings:normal;vector-effect:none;fill:#25241f;fill-opacity:1;stroke:none;stroke-width:0.31768px;stroke-linecap:butt;stroke-linejoin:miter;stroke-miterlimit:4;stroke-dasharray:none;stroke-dashoffset:0;stroke-opacity:1;stop-color:#000000" />
      <path
         d="m 137.87076,78.642759 a 6.9457736,7.8652448 0 0 0 -6.80165,6.27145 1.2698561,2.0912343 0 0 0 -0.71314,1.878955 1.2698561,2.0912343 0 0 0 0.86352,1.981273 6.9457736,7.8652448 0 0 0 6.65127,5.598624 6.9457736,7.8652448 0 0 0 6.73241,-5.93142 1.2698561,2.0912344 0 0 0 0.78083,0.442867 1.2698561,2.0912344 0 0 0 1.2702,-2.091344 1.2698561,2.0912344 0 0 0 -1.2702,-2.091344 1.2698561,2.0912344 0 0 0 -0.68988,0.335896 6.9457736,7.8652448 0 0 0 -6.82336,-6.394957 z"
         style="fill:#c6a03d;fill-opacity:1;stroke:none;stroke-width:0.765;stroke-linecap:round;stroke-linejoin:round;stroke-opacity:1;stop-color:#000000"
         id="path3065" />
      <path
         transform="matrix(0.61206262,0,0,1.2967223,112.79605,68.098584)"
         inkscape:transform-center-y="0.7922793"
         inkscape:transform-center-x="-0.0094650458"
         inkscape:randomized="0.005"
         inkscape:rounded="0.15"
         inkscape:flatsided="true"
         sodipodi:arg2="2.6158343"
         sodipodi:arg1="1.5686367"
         sodipodi:r2="1.8764108"
         sodipodi:r1="3.8456583"
         sodipodi:cy="24.524897"
         sodipodi:cx="41.382484"
         sodipodi:sides="3"
         id="path3896"
         style="font-variation-settings:normal;vector-effect:none;fill:#a78c49;fill-opacity:1;stroke:none;stroke-width:0.296989px;stroke-linecap:butt;stroke-linejoin:miter;stroke-miterlimit:4;stroke-dasharray:none;stroke-dashoffset:0;stroke-opacity:1;stop-color:#000000"
         sodipodi:type="star"
         d="m 41.382164,28.38595 c -0.999705,0.0097 -3.830253,-4.919902 -3.333801,-5.78932 0.496452,-0.869417 6.180968,-0.874691 6.678384,-0.0085 0.497416,0.86615 -2.344877,5.7882 -3.344583,5.79786 z" />
      <path
         d="m 135.93361,96.502299 a 2.3061085,1.7713943 0 0 0 -0.0237,0.253214 2.3061085,1.7713943 0 0 0 2.30608,1.771468 2.3061085,1.7713943 0 0 0 2.30609,-1.771468 2.3061085,1.7713943 0 0 0 -0.0237,-0.253214 z"
         style="font-variation-settings:normal;vector-effect:none;fill:#c6a03d;fill-opacity:1;stroke:none;stroke-width:0.598493;stroke-linecap:round;stroke-linejoin:round;stroke-miterlimit:4;stroke-dasharray:none;stroke-dashoffset:0;stroke-opacity:1;stop-color:#000000"
         id="path3889" />
      <path
         transform="matrix(0.7317199,-0.12685763,0.15808591,0.6884945,111.70183,88.165644)"
         sodipodi:t0="0.82855219"
         sodipodi:argument="-23.611382"
         sodipodi:radius="2.2893143"
         sodipodi:revolution="3.5308208"
         sodipodi:expansion="4.2149301"
         sodipodi:cy="7.179606"
         sodipodi:cx="33.31303"
         id="path4013"
         style="fill:none;fill-rule:evenodd;stroke:#000000;stroke-width:0.264583"
         sodipodi:type="spiral"
         d="M 33.825835,8.0799789 C 33.304629,8.5588923 32.486516,8.4061662 32.040916,7.9041349 31.389576,7.1703087 31.607904,6.038621 32.31584,5.4287576 32.683644,5.1119062 33.158534,4.9351216 33.642044,4.9140575" />
      <g
         transform="translate(93.099128,74.298169)"
         id="g4061">
        <path
           id="path4015"
           style="font-variation-settings:normal;opacity:1;vector-effect:none;fill:#e0d489;fill-opacity:1;stroke:#000000;stroke-width:0.01;stroke-linecap:round;stroke-linejoin:round;stroke-miterlimit:4;stroke-dasharray:none;stroke-dashoffset:0;stroke-opacity:1;stop-color:#000000;stop-opacity:1"
           d="m 41.483256,10.721977 a 1.6244395,1.1913706 0 0 0 -1.552876,0.879053 1.6244395,1.1913706 0 0 0 1.567862,0.88027 1.6244395,1.1913706 0 0 0 1.567863,-0.879661 1.6244395,1.1913706 0 0 0 -1.567863,-0.879662 1.6244395,1.1913706 0 0 0 -0.01499,0 z" />
        <path
           d="m 41.483256,10.950843 a 1.6244395,0.88140367 0 0 0 -1.552876,0.650344 1.6244395,0.88140367 0 0 0 1.567862,0.651244 1.6244395,0.88140367 0 0 0 1.567863,-0.650794 1.6244395,0.88140367 0 0 0 -1.567863,-0.650794 1.6244395,0.88140367 0 0 0 -0.01499,0 z"
           style="font-variation-settings:normal;opacity:1;vector-effect:none;fill:#ffffff;fill-opacity:1;stroke:none;stroke-width:0.29647px;stroke-linecap:butt;stroke-linejoin:miter;stroke-miterlimit:4;stroke-dasharray:none;stroke-dashoffset:0;stroke-opacity:1;stop-color:#000000;stop-opacity:1"
           id="path4022" />
        <path
           id="path4040"
           style="font-variation-settings:normal;opacity:1;vector-effect:none;fill:#543404;fill-opacity:1;stroke:none;stroke-width:0.377953;stroke-linecap:butt;stroke-linejoin:miter;stroke-miterlimit:4;stroke-dasharray:none;stroke-dashoffset:0;stroke-opacity:1;stop-color:#000000;stop-opacity:1"
           d="m 156.78711,41.388672 a 6.1396139,3.3312895 0 0 0 -2.44727,0.289062 2.9889639,3.9959104 0 0 0 -0.54492,2.300782 2.9889639,3.9959104 0 0 0 0.4043,2.003906 6.1396139,3.3312895 0 0 0 2.64453,0.326172 6.1396139,3.3312895 0 0 0 2.51172,-0.292969 2.9889639,3.9959104 0 0 0 0.41797,-2.037109 2.9889639,3.9959104 0 0 0 -0.5625,-2.332032 6.1396139,3.3312895 0 0 0 -2.36719,-0.257812 6.1396139,3.3312895 0 0 0 -0.0566,0 z"
           transform="scale(0.26458333)" />
        <path
           id="ellipse4042"
           style="font-variation-settings:normal;opacity:1;vector-effect:none;fill:#000000;fill-opacity:1;stroke:none;stroke-width:0.0251069;stroke-linecap:round;stroke-linejoin:round;stroke-miterlimit:4;stroke-dasharray:none;stroke-dashoffset:0;stroke-opacity:1;stop-color:#000000;stop-opacity:1"
           d="m 156.78711,41.388672 a 6.1396139,3.3312895 0 0 0 -0.47461,0.01172 1.9855254,2.6544255 0 0 0 -1.51367,2.578125 1.9855254,2.6544255 0 0 0 0.96875,2.277343 6.1396139,3.3312895 0 0 0 1.07617,0.05273 6.1396139,3.3312895 0 0 0 0.94336,-0.04102 1.9855254,2.6544255 0 0 0 0.98242,-2.289062 1.9855254,2.6544255 0 0 0 -1.52539,-2.582032 6.1396139,3.3312895 0 0 0 -0.40039,-0.0078 6.1396139,3.3312895 0 0 0 -0.0566,0 z"
           transform="scale(0.26458333)" />
      </g>
      <g
         id="g4071"
         transform="translate(99.04718,74.295363)">
        <path
           d="m 41.483256,10.721977 a 1.6244395,1.1913706 0 0 0 -1.552876,0.879053 1.6244395,1.1913706 0 0 0 1.567862,0.88027 1.6244395,1.1913706 0 0 0 1.567863,-0.879661 1.6244395,1.1913706 0 0 0 -1.567863,-0.879662 1.6244395,1.1913706 0 0 0 -0.01499,0 z"
           style="font-variation-settings:normal;opacity:1;vector-effect:none;fill:#e0d489;fill-opacity:1;stroke:#000000;stroke-width:0.01;stroke-linecap:round;stroke-linejoin:round;stroke-miterlimit:4;stroke-dasharray:none;stroke-dashoffset:0;stroke-opacity:1;stop-color:#000000;stop-opacity:1"
           id="path4063" />
        <path
           id="path4065"
           style="font-variation-settings:normal;opacity:1;vector-effect:none;fill:#ffffff;fill-opacity:1;stroke:none;stroke-width:0.29647px;stroke-linecap:butt;stroke-linejoin:miter;stroke-miterlimit:4;stroke-dasharray:none;stroke-dashoffset:0;stroke-opacity:1;stop-color:#000000;stop-opacity:1"
           d="m 41.483256,10.950843 a 1.6244395,0.88140367 0 0 0 -1.552876,0.650344 1.6244395,0.88140367 0 0 0 1.567862,0.651244 1.6244395,0.88140367 0 0 0 1.567863,-0.650794 1.6244395,0.88140367 0 0 0 -1.567863,-0.650794 1.6244395,0.88140367 0 0 0 -0.01499,0 z" />
        <path
           transform="scale(0.26458333)"
           d="m 156.78711,41.388672 a 6.1396139,3.3312895 0 0 0 -2.44727,0.289062 2.9889639,3.9959104 0 0 0 -0.54492,2.300782 2.9889639,3.9959104 0 0 0 0.4043,2.003906 6.1396139,3.3312895 0 0 0 2.64453,0.326172 6.1396139,3.3312895 0 0 0 2.51172,-0.292969 2.9889639,3.9959104 0 0 0 0.41797,-2.037109 2.9889639,3.9959104 0 0 0 -0.5625,-2.332032 6.1396139,3.3312895 0 0 0 -2.36719,-0.257812 6.1396139,3.3312895 0 0 0 -0.0566,0 z"
           style="font-variation-settings:normal;opacity:1;vector-effect:none;fill:#543404;fill-opacity:1;stroke:none;stroke-width:0.377953;stroke-linecap:butt;stroke-linejoin:miter;stroke-miterlimit:4;stroke-dasharray:none;stroke-dashoffset:0;stroke-opacity:1;stop-color:#000000;stop-opacity:1"
           id="path4067" />
        <path
           transform="scale(0.26458333)"
           d="m 156.78711,41.388672 a 6.1396139,3.3312895 0 0 0 -0.47461,0.01172 1.9855254,2.6544255 0 0 0 -1.51367,2.578125 1.9855254,2.6544255 0 0 0 0.96875,2.277343 6.1396139,3.3312895 0 0 0 1.07617,0.05273 6.1396139,3.3312895 0 0 0 0.94336,-0.04102 1.9855254,2.6544255 0 0 0 0.98242,-2.289062 1.9855254,2.6544255 0 0 0 -1.52539,-2.582032 6.1396139,3.3312895 0 0 0 -0.40039,-0.0078 6.1396139,3.3312895 0 0 0 -0.0566,0 z"
           style="font-variation-settings:normal;opacity:1;vector-effect:none;fill:#000000;fill-opacity:1;stroke:none;stroke-width:0.0251069;stroke-linecap:round;stroke-linejoin:round;stroke-miterlimit:4;stroke-dasharray:none;stroke-dashoffset:0;stroke-opacity:1;stop-color:#000000;stop-opacity:1"
           id="path4069" />
      </g>
      <rect
         style="font-variation-settings:normal;vector-effect:none;fill:#967521;fill-opacity:1;stroke:none;stroke-width:0.264583px;stroke-linecap:butt;stroke-linejoin:miter;stroke-miterlimit:4;stroke-dasharray:none;stroke-dashoffset:0;stroke-opacity:1;stop-color:#000000"
         id="rect3009-2"
         width="3.7422025"
         height="13.342168"
         x="49.093475"
         y="165.42101"
         ry="2.1031814"
         transform="rotate(-38.645149)"
         inkscape:transform-center-x="-3.0627359"
         inkscape:transform-center-y="3.961955" />
      <rect
         transform="rotate(46.318016)"
         ry="2.1031814"
         y="-36.323143"
         x="180.30788"
         height="12.279905"
         width="3.941803"
         id="rect3013-8"
         style="font-variation-settings:normal;vector-effect:none;fill:#967521;fill-opacity:1;stroke:none;stroke-width:0.264583px;stroke-linecap:butt;stroke-linejoin:miter;stroke-miterlimit:4;stroke-dasharray:none;stroke-dashoffset:0;stroke-opacity:1;stop-color:#000000" />
      <path
         id="path978"
         style="font-variation-settings:normal;vector-effect:none;fill:#c6a03d;fill-opacity:1;stroke:none;stroke-width:0.765;stroke-linecap:round;stroke-linejoin:round;stroke-miterlimit:4;stroke-dasharray:none;stroke-dashoffset:0;stroke-opacity:1;stop-color:#000000"
         d="m 143.24224,112.81195 a 2.4889474,2.4889474 0 0 0 -2.46858,2.48874 2.4889474,2.4889474 0 0 0 2.48874,2.48925 2.4889474,2.4889474 0 0 0 2.48925,-2.48925 2.4889474,2.4889474 0 0 0 -2.48925,-2.48874 2.4889474,2.4889474 0 0 0 -0.0202,0 z" />
      <rect
         transform="rotate(3.4187242)"
         ry="0.37937135"
         y="75.724518"
         x="137.9023"
         height="0.75874269"
         width="2.6219296"
         id="rect4207"
         style="font-variation-settings:normal;vector-effect:none;fill:#25241f;fill-opacity:1;stroke:none;stroke-width:0.31768px;stroke-linecap:butt;stroke-linejoin:miter;stroke-miterlimit:4;stroke-dasharray:none;stroke-dashoffset:0;stroke-opacity:1;stop-color:#000000" />
      <ellipse
         style="font-variation-settings:normal;vector-effect:none;fill:#3c2b08;fill-opacity:1;stroke:#000000;stroke-width:0.0883332;stroke-linecap:butt;stroke-linejoin:miter;stroke-miterlimit:4;stroke-dasharray:none;stroke-dashoffset:0;stroke-opacity:1;stop-color:#000000"
         id="path1096"
         cx="137.59666"
         cy="80.748466"
         rx="10.999766"
         ry="3.1567605" />
      <g
         id="g1138"
         transform="translate(93.19955,72.474698)">
        <path
           id="path1098"
           style="fill:#ffffff;fill-opacity:1;fill-rule:evenodd;stroke:#000000;stroke-width:1.31651"
           d="m 178.85547,61.921875 c -1.43375,6.434307 -8.36832,9.989537 -14.64844,8.912109 -4.93466,-0.846599 -9.11059,-4.197372 -11.40625,-8.583984 l -0.22656,0.0059 c 2.18767,8.252012 6.50419,14.643019 11.64648,16.199219 6.39962,1.936704 13.49389,-4.678875 14.63477,-16.533203 z"
           transform="scale(0.26458333)" />
        <path
           sodipodi:type="spiral"
           style="fill:none;fill-rule:evenodd;stroke:#000000;stroke-width:0.264583;stroke-opacity:0.209677"
           id="path1112"
           sodipodi:cx="40.758602"
           sodipodi:cy="16.854685"
           sodipodi:expansion="4.2149301"
           sodipodi:revolution="3.3045199"
           sodipodi:radius="5.6298351"
           sodipodi:argument="-17.794271"
           sodipodi:t0="0.87839401"
           transform="matrix(0.68864983,0,0,0.67980877,16.687658,5.3077752)"
           d="m 43.702415,18.254067 c -0.479494,2.178736 -2.869033,3.261248 -4.926122,2.770709 -1.639165,-0.39088 -2.955335,-1.648085 -3.563533,-3.20124" />
      </g>
      <path
         id="rect1114"
         style="font-variation-settings:normal;vector-effect:none;fill:#3c2b08;fill-opacity:1;stroke:#000000;stroke-width:0.103311;stroke-linecap:butt;stroke-linejoin:miter;stroke-miterlimit:4;stroke-dasharray:none;stroke-dashoffset:0;stroke-opacity:1;stop-color:#000000"
         d="m 137.82473,74.655328 a 6.1109324,1.7326006 0 0 0 -6.11159,1.732657 6.1109324,1.7326006 0 0 0 0.18129,0.417307 c -0.006,0.03693 -0.0138,0.07402 -0.0138,0.111707 v 3.246289 c 0,0.788096 1.45633,1.42267 3.265,1.42267 h 5.44138 c 1.80867,0 3.265,-0.634574 3.265,-1.42267 v -3.246289 c 0,-0.0654 -0.0145,-0.129284 -0.0339,-0.192296 a 6.1109324,1.7326006 0 0 0 0.11722,-0.336718 6.1109324,1.7326006 0 0 0 -6.11067,-1.732657 z" />
      <rect
         transform="matrix(-0.99822039,0.05963259,0.05963259,0.99822039,0,0)"
         ry="0.37937135"
         y="92.131691"
         x="-136.74574"
         height="0.75874269"
         width="2.6219296"
         id="rect1140"
         style="font-variation-settings:normal;vector-effect:none;fill:#25241f;fill-opacity:1;stroke:none;stroke-width:0.31768px;stroke-linecap:butt;stroke-linejoin:miter;stroke-miterlimit:4;stroke-dasharray:none;stroke-dashoffset:0;stroke-opacity:1;stop-color:#000000" />
      <rect
         style="font-variation-settings:normal;vector-effect:none;fill:#25241f;fill-opacity:1;stroke:none;stroke-width:0.31768px;stroke-linecap:butt;stroke-linejoin:miter;stroke-miterlimit:4;stroke-dasharray:none;stroke-dashoffset:0;stroke-opacity:1;stop-color:#000000"
         id="rect1302"
         width="2.9399648"
         height="1.0022607"
         x="157.89264"
         y="29.683735"
         ry="0.50113034"
         transform="rotate(22.815623)" />
      <rect
         style="font-variation-settings:normal;vector-effect:none;fill:#25241f;fill-opacity:1;stroke:none;stroke-width:0.31768px;stroke-linecap:butt;stroke-linejoin:miter;stroke-miterlimit:4;stroke-dasharray:none;stroke-dashoffset:0;stroke-opacity:1;stop-color:#000000"
         id="rect1321"
         width="2.9399648"
         height="1.0022607"
         x="-94.744621"
         y="135.96373"
         ry="0.50113034"
         transform="matrix(-0.92175745,0.38776694,0.38776694,0.92175745,0,0)" />
      <path
         id="path1544"
         style="font-variation-settings:normal;vector-effect:none;fill:#2b2006;fill-opacity:1;stroke:none;stroke-width:0.328062px;stroke-linecap:butt;stroke-linejoin:miter;stroke-miterlimit:4;stroke-dasharray:none;stroke-dashoffset:0;stroke-opacity:1;stop-color:#000000"
         d="m 143.82673,76.758526 a 6.982434,4.7611733 0 0 1 -6.06526,2.402954 6.982434,4.7611733 0 0 1 -5.88078,-2.194698 v 2.154391 a 6.982434,4.7611733 0 0 0 5.88078,2.194698 6.982434,4.7611733 0 0 0 6.09058,-2.432927 v -1.965771 c 0,-0.05383 -0.011,-0.106511 -0.0253,-0.158647 z" />
    </g>
    <g
       id="g2897"
       transform="matrix(1.3579305,0,0,1.3579305,-164.05006,-65.462908)">
      <ellipse
         style="font-variation-settings:normal;vector-effect:none;fill:#ffffff;fill-opacity:1;stroke:#000000;stroke-width:0.266262;stroke-linecap:butt;stroke-linejoin:miter;stroke-miterlimit:4;stroke-dasharray:none;stroke-dashoffset:0;stroke-opacity:1;stop-color:#000000"
         id="ellipse1798"
         cx="196.73972"
         cy="87.537094"
         rx="5.5691671"
         ry="4.2723575" />
      <path
         id="path1800"
         style="font-variation-settings:normal;vector-effect:none;fill:#ffffff;fill-opacity:1;stroke:#000000;stroke-width:0.278263;stroke-linecap:butt;stroke-linejoin:miter;stroke-miterlimit:4;stroke-dasharray:none;stroke-dashoffset:0;stroke-opacity:1;stop-color:#000000"
         d="m 195.5894,97.159604 c -0.19872,0 -0.36636,0.238315 -0.43275,0.573572 h -0.21946 c -0.1595,0 -0.28798,0.246508 -0.28798,0.552247 v 0.184082 c 0,0.305735 0.12848,0.551685 0.28798,0.551685 h 0.18804 v 0.460768 h -0.18804 c -0.1595,0 -0.28798,0.245947 -0.28798,0.551682 v 0.18408 c 0,0.30574 0.12848,0.55169 0.28798,0.55169 h 0.18804 v 0.46077 h -0.18804 c -0.1595,0 -0.28798,0.24594 -0.28798,0.55168 v 0.18408 c 0,0.30574 0.12848,0.55169 0.28798,0.55169 h 0.18804 v 0.2301 c 0,0.1986 0.0347,0.37983 0.0917,0.52755 -0.0239,0.0633 -0.0456,0.13043 -0.0603,0.20485 h -0.21946 c -0.1595,0 -0.28798,0.24651 -0.28798,0.55225 v 0.18408 c 0,0.30574 0.12848,0.55169 0.28798,0.55169 h 0.18804 v 0.46076 h -0.18804 c -0.1595,0 -0.28798,0.24595 -0.28798,0.55169 v 0.18408 c 0,0.30573 0.12848,0.55168 0.28798,0.55168 h 0.18804 v 0.46077 h -0.18804 c -0.1595,0 -0.28798,0.24595 -0.28798,0.55169 v 0.18408 c 0,0.30573 0.12848,0.55168 0.28798,0.55168 h 0.18804 v 0.23011 c 0,0.19859 0.0347,0.37982 0.0917,0.52755 -0.0239,0.0633 -0.0456,0.13043 -0.0603,0.20485 h -0.21946 c -0.1595,0 -0.28798,0.2465 -0.28798,0.55224 v 0.18409 c 0,0.30573 0.12848,0.55168 0.28798,0.55168 h 0.18804 v 0.46077 h -0.18804 c -0.1595,0 -0.28798,0.24594 -0.28798,0.55168 v 0.18408 c 0,0.30574 0.12848,0.55169 0.28798,0.55169 h 0.18804 v 0.46077 h -0.18804 c -0.1595,0 -0.28798,0.24594 -0.28798,0.55168 v 0.18408 c 0,0.30574 0.12848,0.55169 0.28798,0.55169 h 0.18804 v 0.2301 c 0,0.1986 0.0347,0.37983 0.0917,0.52755 -0.0239,0.0633 -0.0456,0.13043 -0.0603,0.20485 h -0.21946 c -0.1595,0 -0.28798,0.24651 -0.28798,0.55225 v 0.18408 c 0,0.30574 0.12848,0.55168 0.28798,0.55168 h 0.18804 v 0.46077 h -0.18804 c -0.1595,0 -0.28798,0.24595 -0.28798,0.55169 v 0.18408 c 0,0.30573 0.12848,0.55168 0.28798,0.55168 h 0.18804 v 0.46077 h -0.18804 c -0.1595,0 -0.28798,0.24595 -0.28798,0.55169 v 0.18408 c 0,0.30573 0.12848,0.55168 0.28798,0.55168 h 0.18804 v 0.23011 c 0,0.4927 0.20712,0.88954 0.46417,0.88954 h 1.51925 c 0.25704,0 0.46366,-0.39684 0.46366,-0.88954 v -0.23011 h 0.30138 c 0.15949,0 0.28797,-0.24595 0.28797,-0.55168 v -0.18408 c 0,-0.30574 -0.12848,-0.55169 -0.28797,-0.55169 h -0.30138 v -0.46077 h 0.30138 c 0.15949,0 0.28797,-0.24595 0.28797,-0.55168 v -0.18408 c 0,-0.30574 -0.12848,-0.55169 -0.28797,-0.55169 h -0.30138 v -0.46076 h 0.30138 c 0.15949,0 0.28797,-0.24595 0.28797,-0.55169 v -0.18408 c 0,-0.30574 -0.12848,-0.55225 -0.28797,-0.55225 h -0.3323 c -0.0148,-0.0748 -0.0361,-0.14236 -0.0603,-0.20597 0.0567,-0.14755 0.0912,-0.32828 0.0912,-0.52643 v -0.2301 h 0.30138 c 0.15949,0 0.28797,-0.24595 0.28797,-0.55168 v -0.18409 c 0,-0.30574 -0.12848,-0.55168 -0.28797,-0.55168 h -0.30138 v -0.46077 h 0.30138 c 0.15949,0 0.28797,-0.24595 0.28797,-0.55169 v -0.18408 c 0,-0.30574 -0.12848,-0.55168 -0.28797,-0.55168 h -0.30138 v -0.46077 h 0.30138 c 0.15949,0 0.28797,-0.24595 0.28797,-0.55168 v -0.18409 c 0,-0.30574 -0.12848,-0.55224 -0.28797,-0.55224 h -0.3323 c -0.0148,-0.0748 -0.0361,-0.14236 -0.0603,-0.20597 0.0567,-0.14755 0.0912,-0.32829 0.0912,-0.52643 v -0.23011 h 0.30138 c 0.15949,0 0.28797,-0.24595 0.28797,-0.55168 v -0.18408 c 0,-0.30574 -0.12848,-0.55169 -0.28797,-0.55169 h -0.30138 v -0.46077 h 0.30138 c 0.15949,0 0.28797,-0.24595 0.28797,-0.55168 v -0.18408 c 0,-0.30574 -0.12848,-0.55169 -0.28797,-0.55169 h -0.30138 v -0.46076 h 0.30138 c 0.15949,0 0.28797,-0.24595 0.28797,-0.55169 v -0.18408 c 0,-0.30574 -0.12848,-0.55225 -0.28797,-0.55225 h -0.3323 c -0.0148,-0.0748 -0.0361,-0.14236 -0.0603,-0.20597 0.0567,-0.14755 0.0912,-0.32828 0.0912,-0.52643 v -0.2301 h 0.30138 c 0.15949,0 0.28797,-0.24595 0.28797,-0.55169 v -0.18408 c 0,-0.30574 -0.12848,-0.55168 -0.28797,-0.55168 h -0.30138 v -0.46077 h 0.30138 c 0.15949,0 0.28797,-0.24595 0.28797,-0.55169 v -0.18408 c 0,-0.305735 -0.12848,-0.551682 -0.28797,-0.551682 h -0.30138 V 99.02119 h 0.30138 c 0.15949,0 0.28797,-0.24595 0.28797,-0.551685 v -0.184082 c 0,-0.305739 -0.12848,-0.552247 -0.28797,-0.552247 h -0.3323 c -0.0664,-0.335257 -0.23403,-0.573576 -0.43274,-0.573572 z" />
      <path
         id="path1828"
         style="font-variation-settings:normal;vector-effect:none;fill:#ffffff;fill-opacity:1;stroke:#000000;stroke-width:0.349835;stroke-linecap:butt;stroke-linejoin:miter;stroke-miterlimit:4;stroke-dasharray:none;stroke-dashoffset:0;stroke-opacity:1;stop-color:#000000"
         inkscape:transform-center-x="-0.32117883"
         inkscape:transform-center-y="-0.18032863"
         d="m 190.05367,96.636239 c -0.0717,-4.71e-4 -0.13682,0.0089 -0.19379,0.02946 -0.91156,0.328973 -1.59489,4.144791 -0.85421,4.769731 0.0847,0.0715 0.21109,0.11487 0.36225,0.13901 0.14021,0.74972 0.41923,1.60618 0.78652,2.49236 -0.36723,0.88606 -0.64633,1.74221 -0.78652,2.49183 -0.15116,0.0242 -0.27755,0.0675 -0.36225,0.13901 -0.74068,0.62495 -0.0574,4.44077 0.85421,4.76974 0.057,0.0206 0.12208,0.0299 0.19379,0.0294 0.60774,-0.004 1.69673,-0.72508 2.5032,-1.51257 0.45348,0.0722 0.94538,0.1213 1.45056,0.15916 0.80015,0.80843 1.58305,1.32496 2.24069,1.35238 0.74578,0.0311 1.71225,-0.5508 2.71405,-1.47278 0.70432,-0.0858 1.38041,-0.19982 1.99884,-0.34158 0.90619,0.91977 2.24035,1.78772 2.80087,1.58543 0.91152,-0.32897 1.59488,-4.14478 0.85421,-4.76973 -0.10414,-0.0879 -0.27002,-0.13389 -0.47129,-0.15141 -0.15188,-0.67994 -0.45066,-1.46155 -0.84749,-2.27894 0.39692,-0.81753 0.69558,-1.59939 0.84749,-2.27944 0.20128,-0.0175 0.36715,-0.0636 0.47129,-0.15142 0.74068,-0.62494 0.0573,-4.440757 -0.85421,-4.76973 -0.56053,-0.202288 -1.89468,0.665662 -2.80087,1.585433 -0.61843,-0.141761 -1.29452,-0.255754 -1.99884,-0.341581 -1.00179,-0.92197 -1.96828,-1.503872 -2.71405,-1.472779 -0.6575,0.02741 -1.4402,0.544246 -2.24017,1.352373 -0.50537,0.03787 -0.99744,0.08693 -1.45108,0.159163 -0.80647,-0.787489 -1.89546,-1.50858 -2.5032,-1.51257 z" />
      <path
         id="path1804"
         style="font-variation-settings:normal;vector-effect:none;fill:#ffffff;fill-opacity:1;stroke:#000000;stroke-width:0.318143;stroke-linecap:butt;stroke-linejoin:miter;stroke-miterlimit:4;stroke-dasharray:none;stroke-dashoffset:0;stroke-opacity:1;stop-color:#000000"
         d="m 193.86632,92.448734 c -0.21131,0 -0.38151,0.170211 -0.38151,0.381514 v 2.024387 a 3.0513174,1.7290798 0 0 0 -0.10148,0.442085 3.0513174,1.7290798 0 0 0 3.05133,1.729007 3.0513174,1.7290798 0 0 0 3.05093,-1.697935 c 3e-5,-0.002 4e-4,-0.0039 4e-4,-0.0059 v -0.02517 -2.466472 c 0,-0.211303 -0.17022,-0.381514 -0.38152,-0.381514 z" />
      <g
         transform="matrix(0.7611087,0,0,0.7611087,162.64301,77.888709)"
         id="g1810"
         style="font-variation-settings:normal;vector-effect:none;fill:#ffffff;fill-opacity:1;stroke:#000000;stroke-width:0.349834;stroke-linecap:butt;stroke-linejoin:miter;stroke-miterlimit:4;stroke-dasharray:none;stroke-dashoffset:0;stroke-opacity:1;stop-color:#000000">
        <path
           id="path1806"
           style="font-variation-settings:normal;opacity:1;vector-effect:none;fill:#ffffff;fill-opacity:1;stroke:#000000;stroke-width:0.349834;stroke-linecap:butt;stroke-linejoin:miter;stroke-miterlimit:4;stroke-dasharray:none;stroke-dashoffset:0;stroke-opacity:1;stop-color:#000000;stop-opacity:1"
           d="m 41.483256,10.721977 a 1.6244395,1.1913706 0 0 0 -1.552876,0.879053 1.6244395,1.1913706 0 0 0 1.567862,0.88027 1.6244395,1.1913706 0 0 0 1.567863,-0.879661 1.6244395,1.1913706 0 0 0 -1.567863,-0.879662 1.6244395,1.1913706 0 0 0 -0.01499,0 z" />
        <path
           id="path1808"
           style="font-variation-settings:normal;opacity:1;vector-effect:none;fill:#ff1111;fill-opacity:1;stroke:#ff1111;stroke-width:1.32221;stroke-linecap:butt;stroke-linejoin:miter;stroke-miterlimit:4;stroke-dasharray:none;stroke-dashoffset:0;stroke-opacity:1;stop-color:#000000;stop-opacity:1"
           d="m 156.78711,41.388672 a 6.1396139,3.3312895 0 0 0 -0.47461,0.01172 1.9855254,2.6544255 0 0 0 -1.51367,2.578125 1.9855254,2.6544255 0 0 0 0.96875,2.277343 6.1396139,3.3312895 0 0 0 1.07617,0.05273 6.1396139,3.3312895 0 0 0 0.94336,-0.04102 1.9855254,2.6544255 0 0 0 0.98242,-2.289062 1.9855254,2.6544255 0 0 0 -1.52539,-2.582032 6.1396139,3.3312895 0 0 0 -0.40039,-0.0078 6.1396139,3.3312895 0 0 0 -0.0566,0 z"
           transform="scale(0.26458333)" />
      </g>
      <g
         id="g1816"
         transform="matrix(0.7611087,0,0,0.7611087,167.17013,77.886574)"
         style="font-variation-settings:normal;vector-effect:none;fill:#ffffff;fill-opacity:1;stroke:#000000;stroke-width:0.349834;stroke-linecap:butt;stroke-linejoin:miter;stroke-miterlimit:4;stroke-dasharray:none;stroke-dashoffset:0;stroke-opacity:1;stop-color:#000000">
        <path
           d="m 41.483256,10.721977 a 1.6244395,1.1913706 0 0 0 -1.552876,0.879053 1.6244395,1.1913706 0 0 0 1.567862,0.88027 1.6244395,1.1913706 0 0 0 1.567863,-0.879661 1.6244395,1.1913706 0 0 0 -1.567863,-0.879662 1.6244395,1.1913706 0 0 0 -0.01499,0 z"
           style="font-variation-settings:normal;opacity:1;vector-effect:none;fill:#ffffff;fill-opacity:1;stroke:#000000;stroke-width:0.349834;stroke-linecap:butt;stroke-linejoin:miter;stroke-miterlimit:4;stroke-dasharray:none;stroke-dashoffset:0;stroke-opacity:1;stop-color:#000000;stop-opacity:1"
           id="path1812" />
        <path
           transform="scale(0.26458333)"
           d="m 156.78711,41.388672 a 6.1396139,3.3312895 0 0 0 -0.47461,0.01172 1.9855254,2.6544255 0 0 0 -1.51367,2.578125 1.9855254,2.6544255 0 0 0 0.96875,2.277343 6.1396139,3.3312895 0 0 0 1.07617,0.05273 6.1396139,3.3312895 0 0 0 0.94336,-0.04102 1.9855254,2.6544255 0 0 0 0.98242,-2.289062 1.9855254,2.6544255 0 0 0 -1.52539,-2.582032 6.1396139,3.3312895 0 0 0 -0.40039,-0.0078 6.1396139,3.3312895 0 0 0 -0.0566,0 z"
           style="font-variation-settings:normal;opacity:1;vector-effect:none;fill:#ff1111;fill-opacity:1;stroke:#ff1111;stroke-width:1.32221;stroke-linecap:butt;stroke-linejoin:miter;stroke-miterlimit:4;stroke-dasharray:none;stroke-dashoffset:0;stroke-opacity:1;stop-color:#000000;stop-opacity:1"
           id="path1814" />
      </g>
      <g
         transform="matrix(0.7611087,0,0,0.7611087,162.64301,77.888709)"
         id="g1822"
         style="font-variation-settings:normal;vector-effect:none;fill:#ffffff;fill-opacity:1;stroke:#000000;stroke-width:0.349834;stroke-linecap:butt;stroke-linejoin:miter;stroke-miterlimit:4;stroke-dasharray:none;stroke-dashoffset:0;stroke-opacity:1;stop-color:#000000">
        <path
           id="path1818"
           style="font-variation-settings:normal;opacity:1;vector-effect:none;fill:#ffffff;fill-opacity:1;stroke:#000000;stroke-width:0.349834;stroke-linecap:butt;stroke-linejoin:miter;stroke-miterlimit:4;stroke-dasharray:none;stroke-dashoffset:0;stroke-opacity:1;stop-color:#000000;stop-opacity:1"
           d="m 41.483256,10.721977 a 1.6244395,1.1913706 0 0 0 -1.552876,0.879053 1.6244395,1.1913706 0 0 0 1.567862,0.88027 1.6244395,1.1913706 0 0 0 1.567863,-0.879661 1.6244395,1.1913706 0 0 0 -1.567863,-0.879662 1.6244395,1.1913706 0 0 0 -0.01499,0 z" />
        <path
           id="path1820"
           style="font-variation-settings:normal;opacity:1;vector-effect:none;fill:#ff1111;fill-opacity:1;stroke:#ff1111;stroke-width:1.32221;stroke-linecap:butt;stroke-linejoin:miter;stroke-miterlimit:4;stroke-dasharray:none;stroke-dashoffset:0;stroke-opacity:1;stop-color:#000000;stop-opacity:1"
           d="m 156.78711,41.388672 a 6.1396139,3.3312895 0 0 0 -0.47461,0.01172 1.9855254,2.6544255 0 0 0 -1.51367,2.578125 1.9855254,2.6544255 0 0 0 0.96875,2.277343 6.1396139,3.3312895 0 0 0 1.07617,0.05273 6.1396139,3.3312895 0 0 0 0.94336,-0.04102 1.9855254,2.6544255 0 0 0 0.98242,-2.289062 1.9855254,2.6544255 0 0 0 -1.52539,-2.582032 6.1396139,3.3312895 0 0 0 -0.40039,-0.0078 6.1396139,3.3312895 0 0 0 -0.0566,0 z"
           transform="scale(0.26458333)" />
      </g>
      <path
         sodipodi:type="star"
         style="font-variation-settings:normal;vector-effect:none;fill:#ffffff;fill-opacity:1;stroke:#000000;stroke-width:0.266262;stroke-linecap:butt;stroke-linejoin:miter;stroke-miterlimit:4;stroke-dasharray:none;stroke-dashoffset:0;stroke-opacity:1;stop-color:#000000"
         id="path1824"
         sodipodi:sides="3"
         sodipodi:cx="196.48135"
         sodipodi:cy="89.440079"
         sodipodi:r1="1.2560329"
         sodipodi:r2="0.62801647"
         sodipodi:arg1="0.5543075"
         sodipodi:arg2="1.601505"
         inkscape:flatsided="true"
         inkscape:rounded="0.2"
         inkscape:randomized="0"
         inkscape:transform-center-x="0.014403711"
         inkscape:transform-center-y="-0.17177155"
         d="m 197.54931,90.101197 c -0.22901,0.369953 -1.9686,0.316516 -2.17448,-0.0668 -0.20588,-0.383312 0.71019,-1.863122 1.14509,-1.849763 0.4349,0.01336 1.25841,1.546607 1.02939,1.916559 z" />
      <path
         id="path1826"
         style="font-variation-settings:normal;vector-effect:none;fill:#ffffff;fill-opacity:1;stroke:#000000;stroke-width:0.348426;stroke-linecap:butt;stroke-linejoin:miter;stroke-miterlimit:4;stroke-dasharray:none;stroke-dashoffset:0;stroke-opacity:1;stop-color:#000000"
         inkscape:transform-center-x="0.33424793"
         inkscape:transform-center-y="4.9763743"
         d="m 189.91288,126.39215 a 1.6304333,2.429013 80.166501 0 1 1.248,-0.47804 1.6304333,2.429013 80.166501 0 1 2.67163,1.19157 1.6304333,2.429013 80.166501 0 1 -1.45895,1.84196 c -0.002,0.052 -5e-5,0.10194 -0.005,0.15484 l -0.75216,8.99545 c -0.009,0.10251 -0.0254,0.20002 -0.0412,0.29789 a 1.6304333,2.429013 80.166501 0 1 1.11362,1.09792 1.6304333,2.429013 80.166501 0 1 -2.11443,2.02154 1.6304333,2.429013 80.166501 0 1 -2.67234,-1.19173 1.6304333,2.429013 80.166501 0 1 1.47018,-1.84639 c -0.0124,-0.18228 -0.0154,-0.37009 9.8e-4,-0.56658 l 0.74291,-8.89192 a 1.6304333,2.429013 80.166501 0 1 -1.07057,-1.0834 1.6304333,2.429013 80.166501 0 1 0.86673,-1.54306 z" />
      <path
         id="path1830"
         style="font-variation-settings:normal;vector-effect:none;fill:#ffffff;fill-opacity:1;stroke:#000000;stroke-width:0.280069;stroke-linecap:butt;stroke-linejoin:miter;stroke-miterlimit:4;stroke-dasharray:none;stroke-dashoffset:0;stroke-opacity:1;stop-color:#000000"
         inkscape:transform-center-x="2.8592993"
         inkscape:transform-center-y="2.8101999"
         d="m 188.09037,98.198149 a 1.9524708,1.3105625 31.823993 0 1 1.00489,0.379684 1.9524708,1.3105625 31.823993 0 1 0.96783,2.142987 1.9524708,1.3105625 31.823993 0 1 -1.86028,0.32672 c -0.0291,0.0301 -0.0545,0.0612 -0.0854,0.0906 l -5.25776,5.00039 c -0.0599,0.057 -0.12209,0.10658 -0.18389,0.15689 a 1.9524708,1.3105625 31.823993 0 1 0.0822,1.25434 1.9524708,1.3105625 31.823993 0 1 -2.34989,0.0844 1.9524708,1.3105625 31.823993 0 1 -0.96818,-2.14346 1.9524708,1.3105625 31.823993 0 1 1.86941,-0.32337 c 0.0902,-0.11587 0.18845,-0.23051 0.30329,-0.33974 l 5.19689,-4.943158 a 1.9524708,1.3105625 31.823993 0 1 -0.0641,-1.222619 1.9524708,1.3105625 31.823993 0 1 1.34494,-0.463619 z" />
      <path
         id="path1832"
         style="font-variation-settings:normal;vector-effect:none;fill:#ffffff;fill-opacity:1;stroke:#000000;stroke-width:0.280069;stroke-linecap:butt;stroke-linejoin:miter;stroke-miterlimit:4;stroke-dasharray:none;stroke-dashoffset:0;stroke-opacity:1;stop-color:#000000"
         inkscape:transform-center-x="-2.178732"
         inkscape:transform-center-y="3.3654102"
         d="m 178.90088,108.57838 a 1.3105625,1.9524708 43.409355 0 1 0.57377,-0.90818 1.3105625,1.9524708 43.409355 0 1 2.2937,-0.51773 1.3105625,1.9524708 43.409355 0 1 -0.0536,1.88798 c 0.0236,0.0346 0.049,0.0657 0.0716,0.10191 l 3.84262,6.15486 c 0.0438,0.0701 0.0799,0.14101 0.11676,0.21166 a 1.3105625,1.9524708 43.409355 0 1 1.24531,0.17133 1.3105625,1.9524708 43.409355 0 1 -0.3893,2.31896 1.3105625,1.9524708 43.409355 0 1 -2.29423,0.51798 1.3105625,1.9524708 43.409355 0 1 0.0587,-1.89626 c -0.0954,-0.11162 -0.18798,-0.2309 -0.27192,-0.36534 l -3.79876,-6.08374 a 1.3105625,1.9524708 43.409355 0 1 -1.21057,-0.1828 1.3105625,1.9524708 43.409355 0 1 -0.18407,-1.41064 z" />
      <path
         id="path1834"
         style="font-variation-settings:normal;vector-effect:none;fill:#ffffff;fill-opacity:1;stroke:#000000;stroke-width:0.287502;stroke-linecap:butt;stroke-linejoin:miter;stroke-miterlimit:4;stroke-dasharray:none;stroke-dashoffset:0;stroke-opacity:1;stop-color:#000000"
         d="m 187.50005,117.51895 a 2.1421443,1.953162 0 0 1 2.12462,1.953 2.1421443,1.953162 0 0 1 -2.14197,1.9534 2.1421443,1.953162 0 0 1 -2.1424,-1.9534 2.1421443,1.953162 0 0 1 2.1424,-1.953 2.1421443,1.953162 0 0 1 0.0174,0 z" />
      <path
         id="path1836"
         style="font-variation-settings:normal;vector-effect:none;fill:#ffffff;fill-opacity:1;stroke:#000000;stroke-width:0.213539;stroke-linecap:butt;stroke-linejoin:miter;stroke-miterlimit:4;stroke-dasharray:none;stroke-dashoffset:0;stroke-opacity:1;stop-color:#000000"
         d="m 191.1577,119.4079 a 2.8170229,1.8517822 0 0 0 -2.80138,1.85157 2.8170229,1.8517822 0 0 0 0.72243,1.23868 c 0.0653,2.23389 5.19231,7.31378 7.73751,7.2502 2.4323,-0.0607 6.67256,-4.92259 6.87607,-7.30084 a 2.8170229,1.8517822 0 0 0 0.65629,-1.18804 2.8170229,1.8517822 0 0 0 -2.8174,-1.85157 2.8170229,1.8517822 0 0 0 -2.56935,1.09296 c -1.64736,-0.0857 -3.49819,-0.0448 -5.14852,0.11317 a 2.8170229,1.8517822 0 0 0 -2.64015,-1.20613 2.8170229,1.8517822 0 0 0 -0.0155,0 z m 5.13095,2.47375 a 3.0067821,3.0067821 0 0 1 3.00653,3.00654 3.0067821,3.0067821 0 0 1 -3.00653,3.00705 3.0067821,3.0067821 0 0 1 -3.00705,-3.00705 3.0067821,3.0067821 0 0 1 3.00705,-3.00654 z" />
      <path
         id="path1840"
         style="font-variation-settings:normal;vector-effect:none;fill:#ffffff;fill-opacity:1;stroke:#000000;stroke-width:0.280069;stroke-linecap:butt;stroke-linejoin:miter;stroke-miterlimit:4;stroke-dasharray:none;stroke-dashoffset:0;stroke-opacity:1;stop-color:#000000"
         inkscape:transform-center-x="-2.8593016"
         inkscape:transform-center-y="2.8101999"
         d="m 204.78108,98.954102 a 1.3105625,1.9524708 58.176007 0 0 -1.00489,0.379684 1.3105625,1.9524708 58.176007 0 0 -0.96783,2.142994 1.3105625,1.9524708 58.176007 0 0 1.86028,0.32671 c 0.0291,0.0301 0.0545,0.0612 0.0854,0.0906 l 5.25776,5.00039 c 0.0599,0.057 0.12209,0.10658 0.18389,0.15689 a 1.3105625,1.9524708 58.176007 0 0 -0.0822,1.25435 1.3105625,1.9524708 58.176007 0 0 2.34989,0.0844 1.3105625,1.9524708 58.176007 0 0 0.96818,-2.14346 1.3105625,1.9524708 58.176007 0 0 -1.86941,-0.32338 c -0.0902,-0.11587 -0.18845,-0.23051 -0.30329,-0.33974 l -5.19689,-4.94316 a 1.3105625,1.9524708 58.176007 0 0 0.0641,-1.222614 1.3105625,1.9524708 58.176007 0 0 -1.34494,-0.463619 z" />
      <path
         id="path1842"
         style="font-variation-settings:normal;vector-effect:none;fill:#ffffff;fill-opacity:1;stroke:#000000;stroke-width:0.280069;stroke-linecap:butt;stroke-linejoin:miter;stroke-miterlimit:4;stroke-dasharray:none;stroke-dashoffset:0;stroke-opacity:1;stop-color:#000000"
         inkscape:transform-center-x="2.2577387"
         inkscape:transform-center-y="3.3127943"
         d="m 213.2352,109.38103 a 1.9524708,1.3105625 47.949612 0 0 -0.55207,-0.92153 1.9524708,1.3105625 47.949612 0 0 -2.28077,-0.57198 1.9524708,1.3105625 47.949612 0 0 0.009,1.88872 c -0.0244,0.034 -0.0506,0.0645 -0.074,0.10018 l -3.98751,6.06199 c -0.0455,0.0691 -0.0832,0.13908 -0.12175,0.20883 a 1.9524708,1.3105625 47.949612 0 0 -1.24902,0.14175 1.9524708,1.3105625 47.949612 0 0 0.33419,2.32754 1.9524708,1.3105625 47.949612 0 0 2.2813,0.57225 1.9524708,1.3105625 47.949612 0 0 -0.0137,-1.89712 c 0.098,-0.10933 0.19339,-0.22638 0.2805,-0.35879 l 3.94198,-5.99193 a 1.9524708,1.3105625 47.949612 0 0 1.21456,-0.15404 1.9524708,1.3105625 47.949612 0 0 0.21747,-1.40588 z" />
      <path
         id="path1844"
         style="font-variation-settings:normal;vector-effect:none;fill:#ffffff;fill-opacity:1;stroke:#000000;stroke-width:0.287502;stroke-linecap:butt;stroke-linejoin:miter;stroke-miterlimit:4;stroke-dasharray:none;stroke-dashoffset:0;stroke-opacity:1;stop-color:#000000"
         d="m 204.38865,117.84023 a 2.1421443,1.953162 0 0 0 -2.12462,1.953 2.1421443,1.953162 0 0 0 2.14197,1.9534 2.1421443,1.953162 0 0 0 2.1424,-1.9534 2.1421443,1.953162 0 0 0 -2.1424,-1.953 2.1421443,1.953162 0 0 0 -0.0174,0 z" />
      <path
         id="path1846"
         style="font-variation-settings:normal;vector-effect:none;fill:#ffffff;fill-opacity:1;stroke:#000000;stroke-width:0.348426;stroke-linecap:butt;stroke-linejoin:miter;stroke-miterlimit:4;stroke-dasharray:none;stroke-dashoffset:0;stroke-opacity:1;stop-color:#000000"
         inkscape:transform-center-x="-1.0975443"
         inkscape:transform-center-y="4.8652906"
         d="m 187.40785,140.36928 a 1.6304333,2.429013 63.610255 0 1 1.06004,-0.81385 1.6304333,2.429013 63.610255 0 1 2.90041,0.38087 1.6304333,2.429013 63.610255 0 1 -0.87358,2.18133 c 0.0129,0.0504 0.029,0.0977 0.0393,0.14984 l 1.84233,8.83684 c 0.0206,0.10082 0.0326,0.19897 0.0454,0.29728 a 1.6304333,2.429013 63.610255 0 1 1.38031,0.73507 1.6304333,2.429013 63.610255 0 1 -1.45072,2.54024 1.6304333,2.429013 63.610255 0 1 -2.90113,-0.38081 1.6304333,2.429013 63.610255 0 1 0.88308,-2.18878 c -0.0638,-0.1712 -0.12022,-0.35036 -0.16051,-0.54337 l -1.8217,-8.73496 a 1.6304333,2.429013 63.610255 0 1 -1.33491,-0.73342 1.6304333,2.429013 63.610255 0 1 0.39109,-1.72607 z" />
      <path
         id="path1848"
         style="font-variation-settings:normal;vector-effect:none;fill:#ffffff;fill-opacity:1;stroke:#000000;stroke-width:0.348426;stroke-linecap:butt;stroke-linejoin:miter;stroke-miterlimit:4;stroke-dasharray:none;stroke-dashoffset:0;stroke-opacity:1;stop-color:#000000"
         inkscape:transform-center-x="1.0725846"
         inkscape:transform-center-y="4.8708902"
         d="m 199.80223,126.22622 a 1.6304333,2.429013 88.742773 0 1 1.30534,-0.28659 1.6304333,2.429013 88.742773 0 1 2.46406,1.57666 1.6304333,2.429013 88.742773 0 1 -1.71732,1.60379 c -0.01,0.0511 -0.0152,0.10079 -0.028,0.15236 l -2.0852,8.7827 c -0.0242,0.10002 -0.0549,0.194 -0.0852,0.28842 a 1.6304333,2.429013 88.742773 0 1 0.93744,1.25171 1.6304333,2.429013 88.742773 0 1 -2.39225,1.68362 1.6304333,2.429013 88.742773 0 1 -2.46475,-1.57691 1.6304333,2.429013 88.742773 0 1 1.72909,-1.60651 c 0.0149,-0.1821 0.04,-0.36825 0.0855,-0.5601 l 2.06062,-8.6817 a 1.6304333,2.429013 88.742773 0 1 -0.89704,-1.23094 1.6304333,2.429013 88.742773 0 1 1.08715,-1.39656 z" />
      <path
         id="path1850"
         style="font-variation-settings:normal;vector-effect:none;fill:#ffffff;fill-opacity:1;stroke:#000000;stroke-width:0.348426;stroke-linecap:butt;stroke-linejoin:miter;stroke-miterlimit:4;stroke-dasharray:none;stroke-dashoffset:0;stroke-opacity:1;stop-color:#000000"
         inkscape:transform-center-x="-1.5181608"
         inkscape:transform-center-y="4.7508555"
         d="m 196.39788,140.54271 a 1.6304333,2.429013 58.60067 0 1 0.98493,-0.9033 1.6304333,2.429013 58.60067 0 1 2.92259,0.12614 1.6304333,2.429013 58.60067 0 1 -0.67977,2.24928 c 0.0173,0.0491 0.0374,0.0948 0.0522,0.14584 l 2.60694,8.6422 c 0.0293,0.0986 0.0498,0.19536 0.0712,0.29218 a 1.6304333,2.429013 58.60067 0 1 1.43922,0.61173 1.6304333,2.429013 58.60067 0 1 -1.22335,2.65722 1.6304333,2.429013 58.60067 0 1 -2.92331,-0.12602 1.6304333,2.429013 58.60067 0 1 0.68858,-2.25754 c -0.0785,-0.16496 -0.15035,-0.33851 -0.20734,-0.52727 l -2.5775,-8.54252 a 1.6304333,2.429013 58.60067 0 1 -1.39386,-0.61405 1.6304333,2.429013 58.60067 0 1 0.23887,-1.75363 z" />
      <path
         id="path1852"
         style="font-variation-settings:normal;vector-effect:none;fill:#ffffff;fill-opacity:1;stroke:#000000;stroke-width:0.423446;stroke-linecap:butt;stroke-linejoin:miter;stroke-miterlimit:4;stroke-dasharray:none;stroke-dashoffset:0;stroke-opacity:1;stop-color:#000000"
         d="m 190.21686,154.36704 a 1.8851914,4.8144487 79.97084 0 1 5.03038,1.02465 1.8851914,4.8144487 79.97084 0 1 -4.41215,2.69498 1.8851914,4.8144487 79.97084 0 1 -5.0698,-1.01808 1.8851914,4.8144487 79.97084 0 1 4.41317,-2.69476 1.8851914,4.8144487 79.97084 0 1 0.0385,-0.007 z" />
      <path
         id="path1854"
         style="font-variation-settings:normal;vector-effect:none;fill:#ffffff;fill-opacity:1;stroke:#000000;stroke-width:0.423446;stroke-linecap:butt;stroke-linejoin:miter;stroke-miterlimit:4;stroke-dasharray:none;stroke-dashoffset:0;stroke-opacity:1;stop-color:#000000"
         d="m 200.89469,154.17805 a 1.8851914,4.8144487 79.97084 0 1 5.03038,1.02465 1.8851914,4.8144487 79.97084 0 1 -4.41215,2.69498 1.8851914,4.8144487 79.97084 0 1 -5.0698,-1.01808 1.8851914,4.8144487 79.97084 0 1 4.41317,-2.69476 1.8851914,4.8144487 79.97084 0 1 0.0385,-0.007 z" />
    </g>
    <path
       sodipodi:type="spiral"
       style="fill:none;fill-rule:evenodd;stroke:#000000;stroke-width:0.051;stroke-miterlimit:4;stroke-dasharray:none"
       id="path2918"
       sodipodi:cx="13.096207"
       sodipodi:cy="51.850288"
       sodipodi:expansion="4.2149301"
       sodipodi:revolution="3.5817881"
       sodipodi:radius="13.497047"
       sodipodi:argument="-21.002317"
       sodipodi:t0="0.81676185"
       d="m 8.1070845,48.990183 c 1.1426228,-3.758623 5.4847915,-5.333712 9.0300935,-4.188901 5.182218,1.673388 7.32725,7.699774 5.660786,12.610715 -1.340051,3.949026 -4.787725,6.870037 -8.783647,7.904076"
       transform="rotate(-50.117505,15.732829,54.873268)" />
    <path
       sodipodi:type="spiral"
       style="fill:none;fill-rule:evenodd;stroke:#000000;stroke-width:0.051;stroke-miterlimit:4;stroke-dasharray:none"
       id="path2920"
       sodipodi:cx="13.096207"
       sodipodi:cy="51.850288"
       sodipodi:expansion="4.2149301"
       sodipodi:revolution="3.5817881"
       sodipodi:radius="13.497047"
       sodipodi:argument="-21.002317"
       sodipodi:t0="0.81676185"
       d="m 8.1070845,48.990183 c 1.1426228,-3.758623 5.4847915,-5.333712 9.0300935,-4.188901 5.182218,1.673388 7.32725,7.699774 5.660786,12.610715 -1.340051,3.949026 -4.787725,6.870037 -8.783647,7.904076"
       transform="matrix(-0.64121522,-0.76736109,-0.76736109,0.64121522,127.7173,41.248522)" />
    <path
       sodipodi:type="spiral"
       style="fill:none;fill-rule:evenodd;stroke:#000000;stroke-width:0.051;stroke-miterlimit:4;stroke-dasharray:none"
       id="path2924"
       sodipodi:cx="13.096207"
       sodipodi:cy="51.850288"
       sodipodi:expansion="4.2149301"
       sodipodi:revolution="3.5817881"
       sodipodi:radius="13.497047"
       sodipodi:argument="-21.002317"
       sodipodi:t0="0.81676185"
       d="m 8.1070845,48.990183 c 1.1426228,-3.758623 5.4847915,-5.333712 9.0300935,-4.188901 5.182218,1.673388 7.32725,7.699774 5.660786,12.610715 -1.340051,3.949026 -4.787725,6.870037 -8.783647,7.904076"
       transform="matrix(0.51243918,-0.56096341,0.61325102,0.46874709,125.33874,75.013766)" />
    <path
       sodipodi:type="spiral"
       style="fill:none;fill-rule:evenodd;stroke:#000000;stroke-width:0.051;stroke-miterlimit:4;stroke-dasharray:none"
       id="path2926"
       sodipodi:cx="13.096207"
       sodipodi:cy="51.850288"
       sodipodi:expansion="4.2149301"
       sodipodi:revolution="3.5817881"
       sodipodi:radius="13.497047"
       sodipodi:argument="-21.002317"
       sodipodi:t0="0.81676185"
       d="m 8.1070845,48.990183 c 1.1426228,-3.758623 5.4847915,-5.333712 9.0300935,-4.188901 5.182218,1.673388 7.32725,7.699774 5.660786,12.610715 -1.340051,3.949026 -4.787725,6.870037 -8.783647,7.904076"
       transform="matrix(-0.51243918,-0.56096341,-0.61325102,0.46874709,172.38135,99.068023)" />
  </g>
</svg>
